<?xml version="1.0" standalone="no"?>
<!DOCTYPE svg PUBLIC "-//W3C//DTD SVG 1.1//EN" "http://www.w3.org/Graphics/SVG/1.1/DTD/svg11.dtd" >
<svg xmlns="http://www.w3.org/2000/svg">
<metadata>
This is a custom SVG webfont generated by Font Squirrel.
Copyright   : Libertinage is based on Linux LibertineIt was designed by OSP Harrisson and Ludivine Loiseau in August 2008 It is based on Linux LibertineLinux Libertine by Philipp H Poll Open Font under Terms of following Free Software LicensesGPL General Public License and OFL Open Font LicenseCreated with FontForge 10 httpfontforgesfnet Sept 2003 2004 2005 2006 2007
Designer    : OSP
Foundry     : OSP
Foundry URL : httpopenfontlibraryorg
</metadata>
<defs>
<font id="LibertinageFull" horiz-adv-x="1015" >
<font-face units-per-em="2048" ascent="1638" descent="-410" />
<missing-glyph horiz-adv-x="578" />
<glyph unicode=" "  horiz-adv-x="578" />
<glyph unicode="&#x09;" horiz-adv-x="578" />
<glyph unicode="&#xa0;" horiz-adv-x="578" />
<glyph unicode="!" horiz-adv-x="526" d="M136 1354q0 84 39.5 126t86.5 42q52 0 90.5 -43.5t38.5 -124.5q0 -86 -26 -234t-34 -214q-12 -109 -20.5 -205t-11.5 -152t-4 -62q-3 -46 -33 -46t-33 29q0 1 -11.5 165t-23.5 271q-8 82 -33 219.5t-25 228.5zM138 95q0 51 36 87t87 36t87 -36t36 -87t-36 -87t-87 -36 t-87 36t-36 87z" />
<glyph unicode="&#x22;" horiz-adv-x="779" d="M145 1375q0 41 34.5 78t83.5 37q42 0 61.5 -22.5t19.5 -53.5q0 -16 -20 -121l-37 -201l-19 -98l-62 -8q-61 368 -61 389zM437 1377q0 41 34.5 78.5t84.5 37.5q42 0 61 -22.5t19 -54.5q0 -16 -18.5 -121t-37.5 -201l-20 -97l-62 -8q-61 367 -61 388z" />
<glyph unicode="#" d="M55 423l17 113h210l40 254h-209l18 113h209l62 392h78l-64 -392h256l61 392h77l-62 -392h209l-17 -113h-209l-42 -254h209l-15 -113h-208l-65 -394h-76l62 394h-254l-64 -394h-76l61 394h-208zM358 536h257l39 254h-254z" />
<glyph unicode="$" d="M94 338l62 7q29 -114 107.5 -198.5t191.5 -96.5v561l-63 29q-27 13 -66 35.5t-67 44.5t-59.5 53.5t-50.5 64.5t-32 76t-13 91q0 57 22 107.5t57.5 86t82 62t94.5 41t95 19.5v130h79v-128q54 -2 140 -10t129 -8q5 -86 47 -331l-60 -9l-13 42q-35 116 -92 176t-151 69v-494 q36 -13 64 -25.5t70.5 -34.5t75 -44t68.5 -54.5t59 -66.5t38 -79t15 -94q0 -21 -1.5 -43.5t-10.5 -61.5t-24.5 -72.5t-44.5 -72t-69 -66t-102 -47.5t-138 -24v-159h-79v159q-71 4 -150 27t-95 23q-17 0 -35 -12.5t-44 -12.5q0 90 -37 340zM252 1014q0 -129 203 -223v460 q-87 -14 -145 -77t-58 -160zM534 51q39 5 74.5 20t71 42t56.5 74t21 107q0 53 -14.5 97.5t-36 73t-54 52.5t-58.5 37t-60 26v-529z" />
<glyph unicode="%" horiz-adv-x="1474" d="M136 954q0 88 40.5 173t111.5 140t153 55q45 0 89.5 -18t63.5 -40q125 -58 248 -58q94 0 196.5 30t150.5 95l73 -37l-940 -1312l-77 35l822 1147q-112 -44 -247 -44q-40 0 -96.5 15t-89.5 35q7 -28 7 -59q0 -47 -12 -100.5t-37 -108t-59 -99.5t-83 -73t-104 -28 q-101 0 -155.5 76t-54.5 176zM254 921q0 -80 33 -116.5t72 -36.5q60 0 110 58.5t75.5 135t25.5 147.5q0 76 -32.5 108t-73.5 32q-53 0 -102.5 -54.5t-78.5 -130t-29 -143.5zM880 226q0 87 40 171t111.5 139.5t153.5 55.5q39 0 71.5 -9.5t62.5 -31.5t47.5 -65.5t17.5 -103.5 q0 -61 -19.5 -130.5t-55 -133t-94 -105t-126.5 -41.5q-99 0 -154 76.5t-55 177.5zM999 192q0 -80 32 -117t72 -37q60 0 110.5 59.5t75.5 136.5t25 145q0 79 -33 110t-71 31q-53 0 -103 -54.5t-79 -130t-29 -143.5z" />
<glyph unicode="&#x26;" horiz-adv-x="1631" d="M103 360q0 139 99 260t325 249q-115 198 -115 328q0 112 95.5 202.5t258.5 90.5q124 0 208.5 -67.5t84.5 -174.5q0 -92 -95.5 -196.5t-247.5 -193.5l11 -17q65 -113 281 -408q236 348 236 447q0 36 -36 36h-66q-11 2 -11 16v40l4 5q122 -4 200 -4l202 4l4 -5v-37 q-1 -19 -21 -19h-65q-50 0 -87 -44t-106 -173q-106 -203 -196 -345l78 -105q52 -73 100 -112.5t77 -39.5q59 0 100.5 30.5t76.5 99.5l35 -18q-37 -116 -99 -176.5t-127 -60.5q-32 0 -57 4.5t-60 18.5t-72.5 48.5t-75.5 87.5l-67 87q-89 -120 -190.5 -183t-239.5 -63 q-200 0 -321 94t-121 294zM285 362q0 -161 77.5 -236.5t197.5 -75.5q60 0 107.5 15t91 51.5t76 74.5t80.5 106l-207 289q-110 160 -128 197q-170 -94 -232.5 -191.5t-62.5 -229.5zM579 1201q0 -81 87 -251q110 74 174.5 154t64.5 144q0 79 -39.5 121.5t-110.5 42.5 q-58 0 -117 -54.5t-59 -156.5z" />
<glyph unicode="'" horiz-adv-x="441" d="M122 1375q0 41 34.5 78t84.5 37q41 0 60.5 -22.5t19.5 -53.5q0 -16 -18.5 -121t-38.5 -201l-19 -98l-62 -8q-61 368 -61 389z" />
<glyph unicode="(" horiz-adv-x="684" d="M102 583q0 311 136.5 589.5t354.5 463.5l41 -40q-37 -42 -66.5 -80t-88 -137t-97 -201.5t-70 -262.5t-31.5 -332q0 -145 20 -278.5t55.5 -237.5t71 -185.5t82 -150t70.5 -99.5l54 -65l-41 -38q-98 85 -178.5 184t-130 187.5t-86 185.5t-55 168t-28.5 147.5t-11.5 111.5 t-1.5 70z" />
<glyph unicode=")" horiz-adv-x="684" d="M51 -429q37 41 66.5 79t87.5 137t97 202t70 262.5t31 331.5q0 145 -19.5 279t-55 237.5t-71.5 185t-82 150t-71 99.5l-53 65l41 38q98 -84 178 -183.5t130 -188t86.5 -185.5t54.5 -168t28.5 -147.5t12 -111.5t1.5 -70q0 -311 -136.5 -589.5t-354.5 -463.5z" />
<glyph unicode="*" horiz-adv-x="1002" d="M173 1408q0 27 19.5 48t57.5 21q34 0 66 -20t74 -51t82 -48q-4 48 -29 115.5t-25 97.5q0 38 20.5 64t50.5 26q33 0 54.5 -20.5t21.5 -59.5q0 -33 -21.5 -112.5t-23.5 -111.5q42 18 83.5 49t72.5 50.5t65 19.5q41 0 59 -22.5t18 -46.5q0 -85 -158 -85q-66 0 -127 -10 q29 -31 81.5 -66t81.5 -64t29 -70q0 -31 -20.5 -50t-46.5 -19q-41 0 -67.5 37.5t-52.5 106t-44 98.5q-18 -32 -46 -103t-52.5 -105t-64.5 -34q-28 0 -48 20t-20 47q0 44 30 74t84 63.5t82 65.5q-43 8 -99 8q-92 0 -139.5 18.5t-47.5 68.5z" />
<glyph unicode="+" horiz-adv-x="1220" d="M153 479v114h401v403h114v-403h400v-114h-400v-400h-114v400h-401z" />
<glyph unicode="," horiz-adv-x="508" d="M118 102q0 49 35 83t89 34q68 0 109.5 -62.5t41.5 -166.5q0 -114 -70.5 -178.5t-183.5 -84.5l-12 58q84 21 130.5 64t46.5 83q0 26 -13 41t-29 20t-42 8q-102 17 -102 101z" />
<glyph unicode="-" horiz-adv-x="770" d="M77 585q0 29 18.5 57t38.5 28h529q33 0 33 -39q0 -23 -20.5 -54t-40.5 -31h-524q-16 0 -25 12t-9 27z" />
<glyph unicode="." horiz-adv-x="508" d="M131 95q0 51 36 87t87 36t87 -36t36 -87t-36 -87t-87 -36t-87 36t-36 87z" />
<glyph unicode="/" horiz-adv-x="675" d="M9 -50l548 1627h96l-548 -1627h-96z" />
<glyph unicode="0" d="M84 644q0 311 126 502.5t296 191.5q74 0 144.5 -42t123.5 -112q148 -195 148 -520q0 -148 -28 -268.5t-72.5 -197.5t-102 -129.5t-113 -74.5t-109.5 -22q-120 0 -216 93.5t-146.5 247t-50.5 331.5zM261 619q0 -65 5 -132.5t21 -149.5t41 -143.5t69.5 -103t101.5 -41.5 q20 0 42.5 7t53.5 27t58.5 64t44.5 107q48 166 48 452q0 203 -42 334.5t-99 182.5q-39 34 -99 34q-33 0 -63.5 -14t-64.5 -55.5t-59 -109t-41.5 -186t-16.5 -273.5z" />
<glyph unicode="1" d="M211 1112q143 65 222.5 111.5t174.5 114.5h44v-1164q0 -64 16 -85.5t72 -21.5h121q19 0 19 -20v-49l-317 4l-321 -4v51q2 18 18 18h138q31 0 50 6t27 23t9.5 31.5t1.5 46.5v796q0 38 -1 55.5t-5.5 39.5t-15.5 30.5t-30 8.5q-29 0 -90.5 -21.5t-105.5 -44.5z" />
<glyph unicode="2" d="M131 0q0 73 13 126.5t66.5 135.5t156.5 188l163 158q97 101 140 191t43 195q0 75 -23 131t-59.5 84.5t-72 42.5t-68.5 14q-56 0 -98.5 -14t-64 -36t-31 -44.5t-9.5 -45t10 -52.5q9 -32 9 -50q0 -42 -26 -63t-59 -21q-37 0 -62.5 25t-25.5 61q0 51 25 104.5t69.5 100.5 t117.5 77t160 30q58 0 109.5 -9t103.5 -32t89 -59.5t60 -97t23 -137.5q0 -50 -11.5 -95.5t-26.5 -77.5t-48 -73.5t-56 -64.5l-72 -72l-219 -213q-14 -14 -33 -35l-53 -65q-35 -43 -58 -90t-23 -84h393q59 0 93 37t59 131l59 -9l-46 -292h-717z" />
<glyph unicode="3" d="M103 119q0 27 23.5 50.5t56.5 23.5q49 0 85 -54q19 -27 34.5 -44t54.5 -34.5t89 -17.5q26 0 60 9.5t76.5 36t76.5 66t57.5 107t23.5 149.5q0 72 -19.5 125.5t-49 83.5t-71.5 48.5t-78.5 24t-78.5 5.5q-31 0 -72 -9l-11 69q128 22 228 123.5t100 188.5q0 93 -56 145 t-131 52q-26 0 -60.5 -8t-75 -25.5t-67 -54.5t-26.5 -86q0 -42 -18 -77.5t-60 -35.5q-27 0 -42.5 18.5t-18.5 31.5t-3 22q0 25 12 58.5t42.5 74t75 74.5t119.5 56.5t167 22.5q79 0 139 -23t91.5 -60t46 -75.5t14.5 -76.5q0 -161 -227 -304q53 -8 103 -31t96 -64t74 -108 t28 -153q0 -148 -69.5 -257t-180 -161.5t-243.5 -52.5q-68 0 -139.5 17.5t-123.5 52.5t-52 77z" />
<glyph unicode="4" d="M75 447q0 4 3 7q101 111 259.5 398.5t241.5 472.5q4 13 17 13q2 0 32.5 -11.5t46.5 -13.5q-134 -358 -444 -851h367v360q0 32 21 46q58 38 102 38q21 0 27 -15t6 -56v-373h187l-13 -107h-174v-192q0 -55 14.5 -77t63.5 -22h61q17 0 17 -17v-49q-150 4 -246 4l-224 -4v51 q0 15 15 15h64q51 0 65 21t14 77v193h-456q-10 0 -19 12l-19 26l-28 49q-1 1 -1 5z" />
<glyph unicode="5" d="M116 137q0 31 23.5 52t55.5 21t54 -17.5t50 -53.5q22 -27 37 -42.5t44.5 -30.5t63.5 -15q114 0 192.5 96t78.5 244q0 171 -78.5 264t-193.5 93q-150 0 -279 -53l74 632q113 -11 237 -11q178 0 361 22l14 -7l-35 -151q-129 -12 -230 -12q-110 0 -264 20l-43 -365 q92 34 221 34q118 0 208 -63t133 -159t43 -206q0 -195 -124.5 -326t-317.5 -131q-108 0 -216.5 50t-108.5 115z" />
<glyph unicode="6" d="M106 532q0 347 231 581q110 112 234.5 164t297.5 61l7 -60q-123 -12 -218 -48.5t-174 -114.5q-169 -165 -209 -444q38 48 119.5 81t149.5 33q97 0 171 -31t113.5 -74.5t64.5 -101t31.5 -100t6.5 -81.5q0 -52 -10 -106t-38.5 -112.5t-71.5 -103t-114.5 -74t-163.5 -29.5 q-56 0 -109.5 13.5t-113 52t-103.5 98t-72.5 162t-28.5 234.5zM266 524q0 -112 19 -199.5t49 -139.5t70 -86.5t77 -46.5t75 -12q89 0 154 85t65 254q0 47 -13 99t-41.5 107t-86.5 90t-136 35q-132 0 -230 -104q-2 -46 -2 -82z" />
<glyph unicode="7" d="M107 1025q49 172 57 313h48q7 -15 19.5 -20t49.5 -5h442q123 0 169 12l35 -14q-286 -694 -502 -1331l-149 -8l-7 14q211 477 494 1190h-416q-74 0 -109.5 -33.5t-70.5 -125.5z" />
<glyph unicode="8" d="M103 319q0 154 125 265q96 83 161 130l-39 24q-103 63 -152 134.5t-49 162.5q0 129 105.5 216t270.5 87q158 0 250 -77.5t92 -198.5q0 -50 -24.5 -98t-69.5 -90.5t-79 -68.5t-83 -59l135 -88q169 -111 169 -303q0 -66 -26.5 -131.5t-76 -123t-132.5 -93t-186 -35.5 q-178 0 -284.5 91t-106.5 256zM237 319q0 -69 26.5 -125.5t67 -89.5t84.5 -50.5t83 -17.5q33 0 67 7.5t72 26.5t66.5 48.5t48 79t19.5 112.5q0 169 -203 292l-101 62q-123 -83 -176.5 -180.5t-53.5 -164.5zM296 1076q0 -130 167 -238l67 -42q202 149 202 268q0 84 -59 150.5 t-160 66.5q-95 0 -156 -62.5t-61 -142.5z" />
<glyph unicode="9" d="M75 913q0 52 10 105.5t38 112.5t71 103.5t115 74t163 29.5q57 0 110.5 -13.5t113 -52t103.5 -98.5t72 -162t28 -235q0 -346 -230 -580q-111 -112 -235 -164t-297 -61l-7 60q123 12 218 48t174 114q168 165 209 444q-38 -47 -119.5 -80.5t-149.5 -33.5q-97 0 -171 31 t-113.5 74.5t-64.5 101.5t-31.5 100t-6.5 82zM231 931q0 -47 13 -99t41.5 -107t86 -90t135.5 -35q133 0 231 104q2 45 2 81q0 112 -19 199.5t-49 139.5t-70 86.5t-77 47t-75 12.5q-90 0 -154.5 -85.5t-64.5 -253.5z" />
<glyph unicode=":" horiz-adv-x="508" d="M149 209q0 51 36 87t87 36t87.5 -36t36.5 -87t-36.5 -87t-87.5 -36t-87 36t-36 87zM149 817q0 51 36 87t87 36t87.5 -36t36.5 -87t-36.5 -87t-87.5 -36t-87 36t-36 87z" />
<glyph unicode=";" horiz-adv-x="508" d="M120 102q0 49 35 83t89 34q68 0 110 -62.5t42 -166.5q0 -114 -71 -178.5t-184 -84.5l-12 58q85 21 131 64t46 83q0 26 -13 41t-28.5 20t-41.5 8q-103 17 -103 101zM127 817q0 51 36 87t87 36t87 -36t36 -87t-36 -87t-87 -36t-87 36t-36 87z" />
<glyph unicode="&#x3c;" horiz-adv-x="1128" d="M113 498v110l903 328v-116l-734 -267l734 -268v-115z" />
<glyph unicode="=" horiz-adv-x="1220" d="M153 332v114h915v-114h-915zM153 623v114h915v-114h-915z" />
<glyph unicode="&#x3e;" horiz-adv-x="1128" d="M113 164v115l733 268l-733 268v115l903 -329v-109z" />
<glyph unicode="?" horiz-adv-x="939" d="M68 1226q0 113 116 209q108 89 287 89q176 0 279 -94.5t103 -253.5q0 -53 -16.5 -101.5t-37 -82.5t-58.5 -71t-63 -57l-69 -52q-97 -71 -121 -115q-42 -79 -42 -169v-102q0 -24 -30 -24q-28 0 -28 24v106q0 39 1.5 65t9.5 69.5t23 78t45.5 78t73.5 82.5q75 68 107.5 126 t32.5 136q0 116 -67 203t-165 87q-96 0 -160.5 -40.5t-64.5 -93.5q0 -39 14.5 -59.5t14.5 -55.5q0 -37 -27.5 -59t-64 -22t-65 22.5t-28.5 76.5zM294 95q0 51 36 87t87 36t87 -36t36 -87t-36 -87t-87 -36t-87 36t-36 87z" />
<glyph unicode="@" horiz-adv-x="2071" d="M136 516q0 183 75.5 350t203 287.5t303.5 191t368 70.5q183 0 342.5 -59t272 -160t176.5 -242.5t64 -301.5q0 -84 -20 -163t-70 -157.5t-123.5 -137t-190.5 -95t-261 -36.5q-45 0 -64.5 29.5t-19.5 65.5q0 40 35 145l-5 2q-71 -119 -155.5 -178t-152.5 -59 q-65 0 -117 21.5t-82 52.5t-50 71.5t-26.5 75t-6.5 65.5q0 119 49.5 231.5t127.5 191t174 125.5t188 47q58 0 109.5 -27.5t68.5 -71.5l12 55l122 30l35 -12l-138 -598q-31 -137 -31 -153q0 -15 9 -21t16 -6q94 0 161 23t119 78.5t78 152.5t26 238q0 138 -44.5 256 t-117 199.5t-164.5 139.5t-186.5 85.5t-183.5 27.5q-108 0 -212 -29t-200 -91.5t-168.5 -152.5t-116 -223t-43.5 -292q0 -78 11.5 -156.5t38 -163t66.5 -160t102 -143.5t139.5 -117.5t184.5 -78t230 -28.5q269 0 465 153l31 -42q-80 -61 -145 -97t-168 -63t-227 -27 q-202 0 -374.5 68.5t-290 187t-183.5 280.5t-66 346zM801 375q0 -212 181 -212q60 0 135.5 86.5t130.5 212.5q70 169 70 270q0 64 -44.5 104.5t-107.5 40.5q-39 0 -100 -22.5t-109 -70.5q-156 -156 -156 -409z" />
<glyph unicode="A" horiz-adv-x="1446" d="M6 5v42q0 20 18 20q73 0 110 20.5t59 79.5l487 1304q21 53 57 53q35 0 54 -54l455 -1298q23 -65 63 -85t106 -20q19 0 19 -20v-42l-5 -5q-179 5 -270 5l-288 -5l-4 5v42q0 20 18 20h62q113 0 113 58q0 14 -10 47l-75 217h-517q-41 0 -59 -9.5t-26 -31.5l-68 -181 q-17 -43 -17 -61q0 -25 30.5 -32t97.5 -7h41q19 0 19 -20v-42l-5 -5q-168 5 -259 5l-168 -6zM433 501q0 -22 60 -22h451l-182 518l-74 201l-70 -196l-181 -482q-4 -12 -4 -19z" />
<glyph unicode="B" horiz-adv-x="1359" d="M38 23q0 12 2 24q0 19 16 19h69q68 0 94 22.5t26 83.5v1151q0 56 -27 80t-93 24h-69q-18 0 -18 16v46l5 5h400q104 0 187 -15.5t136.5 -43t91.5 -61t58 -75.5t27.5 -80t7.5 -81q0 -48 -15.5 -93.5t-35 -75t-44.5 -56.5t-35.5 -35t-17.5 -12q20 -2 51 -8t75 -21t88.5 -38 t90 -60t79 -82.5t55.5 -111.5t22 -140v-2q0 -61 -18 -116.5t-61.5 -109.5t-108.5 -92.5t-167 -62t-230 -23.5h-10q-55 1 -148.5 2.5t-153.5 1.5h-30q-55 0 -141 -2t-142 -2h-11q-3 0 -3 4q-2 8 -2 20zM419 168q0 -41 12.5 -58t54.5 -25t139 -8q103 0 178.5 16.5t123.5 45 t77 74t40 96.5t13 120v8q0 157 -107 251t-298 94h-15h-218v-614zM419 859l9 1q155 0 250 67t95 206q0 68 -21 120t-52 81.5t-75 47.5t-83 24t-83 6q-7 0 -19.5 -0.5t-20.5 -0.5v-552z" />
<glyph unicode="C" horiz-adv-x="1490" d="M85 728q0 166 61.5 315t163.5 253t236.5 164.5t277.5 60.5q79 0 160.5 -10.5t140.5 -26t107 -31.5t73 -27l25 -10q-95 -175 -162 -321l-64 32q35 105 35 202q-131 107 -341 107q-48 0 -102 -17t-112.5 -50t-111 -89t-94.5 -126.5t-67 -169.5t-25 -212q0 -103 21 -203 t64.5 -191t105 -160.5t150.5 -110t193 -40.5q161 0 286.5 60.5t249.5 194.5l53 -34q-117 -154 -268 -235.5t-318 -81.5q-145 0 -268 42.5t-208.5 116t-145.5 171t-88 206t-28 221.5z" />
<glyph unicode="D" horiz-adv-x="1362" d="M40 1448v42l4 5q201 -5 292 -5l267 5h13q123 0 228.5 -39t182 -109t130 -165t80 -208t26.5 -237q0 -210 -79.5 -376t-237 -263.5t-370.5 -98.5l-240 -1l-292 -5l-3 5v42q0 20 17 20h69q64 0 91.5 25t27.5 81v601v561q0 54 -29 77t-97 23h-61q-19 0 -19 20zM433 166 q0 -50 26 -70.5t94 -20.5h28q92 0 174 40t149.5 120t107 214.5t39.5 307.5q0 144 -22 257.5t-60.5 188t-92 123t-113.5 69t-130 20.5h-80q-69 0 -94.5 -17t-25.5 -70v-1162z" />
<glyph unicode="E" horiz-adv-x="1318" d="M28 0v46q0 16 18 16h69q67 0 93.5 25.5t26.5 76.5v1159q0 56 -27 80t-93 24h-69q-18 0 -18 16v46l5 5l296 -5l179 3l441 2q15 -184 49 -359l-68 -12l-22 66q-8 23 -22.5 57.5t-27 53.5t-32 41.5t-42 33t-53 18.5t-67.5 8h-159q-43 0 -63.5 -17.5t-20.5 -58.5v-462h231 q57 0 80.5 24.5t35.5 78.5l16 69q2 19 17 19h51q8 0 8 -10q-18 -132 -18 -220q0 -95 18 -222l-6 -8h-53q-17 0 -19 17l-14 72q-10 53 -35.5 77t-80.5 24h-231v-620q0 -43 21 -59.5t63 -16.5h383q63 0 112.5 22.5t82.5 67.5t54.5 94.5t41.5 118.5l70 -11q-49 -224 -61 -382 h-681l-179 2l-296 -5z" />
<glyph unicode="F" horiz-adv-x="1134" d="M28 5v45q0 17 18 17h69q32 0 49.5 5t25.5 20t9.5 29.5t1.5 45.5v1164q0 62 -15.5 81.5t-70.5 19.5h-69q-18 0 -18 16v45l5 5q26 0 84 -2t89 -2q36 0 66 2h849l30 -443h-66q-8 42 -26 97t-44 112.5t-60.5 96.5t-69.5 39h-497v-532h230q57 0 80.5 24t35.5 78l16 69 q3 20 17 20h51q8 0 8 -11q-18 -132 -18 -220q0 -95 18 -221l-6 -8h-53q-17 0 -19 17l-14 71q-10 53 -35.5 77t-80.5 24h-230v-620q0 -63 15 -81t69 -18h68q19 0 19 -17v-45l-2 -5q-171 5 -279 5l-246 -5z" />
<glyph unicode="G" horiz-adv-x="1556" d="M73 711q0 148 44.5 279t121 227t177 165.5t216 104.5t235.5 35q122 0 218.5 -26t165 -52t121.5 -26q18 -191 51 -356l-69 -13q-26 82 -61 145.5t-94 121.5t-151 89.5t-213 31.5q-237 0 -398.5 -191t-161.5 -490q0 -118 42 -238.5t119.5 -224.5t201.5 -170.5t271 -66.5 q98 0 190.5 30t150.5 85v354q0 63 -21 90t-81 27q-16 0 -38 -2l-7 3v60l7 6q156 -5 230 -5l85 5v-127l1 -487v-5q0 -122 -13.5 -223.5t-35.5 -172.5t-53.5 -126.5t-65.5 -89t-72.5 -54.5t-72 -28.5t-68.5 -7.5q-34 0 -71 7t-78 23t-67 48t-26 75q0 70 74 70q10 0 20 -2 t24.5 -10t25.5 -26.5t17 -47.5q3 -15 6.5 -25t11.5 -20.5t24 -15.5t38 -5q40 0 68.5 13.5t55 52t43.5 103.5t27 170t10 249q-173 -75 -391 -75q-171 0 -318.5 59t-248.5 160t-159 236t-58 284z" />
<glyph unicode="H" horiz-adv-x="1620" d="M40 -6v43q0 19 18 19h61q69 0 97.5 25.5t28.5 76.5v1041q0 91 -15 129.5t-47 38.5h-7l-74 -8q-13 0 -13 12l-4 58q59 0 160 21q61 11 122 38h64l1 -655h756v655h63q61 -27 122 -38q102 -21 160 -21l-4 -58q0 -12 -13 -12l-74 8h-7q-32 0 -47 -38.5t-15 -129.5l1 -1041 q0 -54 29.5 -78t97.5 -24h61q19 0 19 -19v-43l-5 -4q-201 4 -291 4l-299 -4l-4 4v43q0 19 18 19h61q69 0 98 25.5t29 76.5v584h-756v-584q0 -54 29 -78t97 -24h61q19 0 19 -19v-43l-4 -4q-201 4 -292 4l-298 -4z" />
<glyph unicode="I" horiz-adv-x="677" d="M40 0v43q0 19 18 19h61q69 0 97.5 25t28.5 76v1186q0 52 -8 65t-35 13h-34q-19 0 -19 19v43l5 5q90 -5 180 -5l179 5l5 -5v-43q0 -19 -19 -19h-29q-27 0 -32.5 -13t-5.5 -65v-1186q0 -55 29 -78t97 -23h61q19 0 19 -19v-43l-4 -5q-201 5 -292 5l-298 -5z" />
<glyph unicode="J" horiz-adv-x="1054" d="M-11 412l70 7q78 -355 360 -355q138 0 224 76.5t86 213.5l1 939q0 56 -38.5 96t-103.5 40h-84q-19 0 -19 20v43l4 4q240 -4 330 -4l276 4l4 -4v-43q0 -20 -18 -20h-38q-69 0 -98 -24.5t-29 -75.5v-895q0 -138 -58.5 -241.5t-162 -158t-235.5 -54.5q-100 0 -167.5 10 t-101.5 19.5t-52 9.5q-24 0 -55.5 -5.5t-49.5 -5.5q-7 130 -45 404z" />
<glyph unicode="K" horiz-adv-x="1539" d="M40 -1v43q0 19 18 19h61q69 0 97.5 25t28.5 76l-1 1041q0 92 -15 130.5t-47 38.5h-7l-74 -8q-13 0 -13 11l-4 59q58 0 160 20q61 12 122 39h63l3 -749v-147l426 528q45 57 45 68q0 29 -18 42t-61 13h-62q-8 0 -14 5t-6 11v43l6 7q139 -4 236 -4q34 0 65.5 1t47.5 2l15 1 l71 -4v-43q0 -8 -6.5 -13t-11 -5.5t-8.5 -0.5h-26q-46 0 -83 -27.5t-85 -88.5l-216 -272l582 -701q87 -104 181 -104h16q7 0 14.5 -5t7.5 -14v-43l-8 -4q-173 4 -263 4l-139 -4l-5 4v15q0 29 -1.5 46.5t-13 48t-32.5 56.5l-453 556l-201 -264l1 -313q5 -41 34.5 -59 t90.5 -18h61q19 0 19 -19v-43l-4 -5q-201 6 -292 6l-298 -6z" />
<glyph unicode="L" horiz-adv-x="1128" d="M40 1450v43l4 4q201 -4 292 -4l298 4l4 -4v-43q0 -19 -18 -19h-61q-69 0 -97.5 -25.5t-28.5 -76.5v-1131q0 -57 23.5 -76.5t87.5 -20.5l268 -3q36 0 70 39t60 97t44.5 112.5t25.5 96.5h67l-30 -443h-757l-240 -2l-5 5v46q0 15 19 15h68q64 0 88 19.5t24 72.5v1173 q0 54 -29 78t-97 24h-61q-19 0 -19 19z" />
<glyph unicode="M" horiz-adv-x="1774" d="M40 -2v43q0 19 22 19h61q86 0 98 134v1134q0 54 -17.5 77.5t-69.5 23.5h-67q-23 2 -23 16v43l7 8h340l473 -1180q13 -29 20 -29q8 0 21 32l503 1177h286l6 -8v-40q-2 -19 -25 -19h-64q-36 0 -56 -27.5t-20 -73.5l1 -1129q4 -66 25.5 -101.5t74.5 -35.5h61q27 0 27 -19 v-43l-5 -5q-169 5 -259 5l-249 -5l-5 5l6 43q0 19 22 19h61q76 0 76 137v1037l-522 -1225q-11 -26 -33 -26q-24 0 -34 26l-484 1201v-1018q0 -62 16 -98t62 -36h61q8 0 15.5 -5t7.5 -14l9 -41l-5 -7q-122 5 -212 5l-209 -5z" />
<glyph unicode="N" horiz-adv-x="1482" d="M20 0v42q0 9 10.5 14.5t20.5 5.5h61q64 0 94.5 41.5t30.5 95.5v1225q0 68 49 68q56 -3 91 -50q25 -31 223 -311l380 -535q182 -255 190 -255q15 0 15 88v858q0 58 -29 99.5t-95 41.5h-61q-10 0 -20 5t-10 15v42l11 5q172 -5 254 -5l257 5l4 -5v-42q0 -20 -19 -20h-61 q-65 0 -96 -40t-31 -101l-1 -1219q0 -68 -48 -68q-57 2 -92 50q-25 30 -222 310l-380 536q-182 254 -190 254q-16 0 -16 -88v-860q0 -58 31 -99t96 -41h61q19 0 19 -19v-43l-5 -5q-166 5 -256 5l-249 -5z" />
<glyph unicode="O" horiz-adv-x="1647" d="M85 742q0 225 96 406.5t265 284.5t378 103t378 -103t265 -284.5t96 -406.5q0 -137 -58.5 -274t-155.5 -243.5t-235.5 -173t-288.5 -66.5q-121 0 -235 43t-204 117t-159 169.5t-105.5 206.5t-36.5 221zM286 786q0 -128 36.5 -252.5t103.5 -226t171.5 -164t229.5 -62.5 q101 0 188 41t149.5 110.5t108 160t67.5 191t22 202.5q0 178 -66.5 329t-190 243.5t-279.5 92.5q-10 0 -30.5 -1.5t-76 -14.5t-106.5 -36.5t-113.5 -73t-107.5 -117t-75.5 -177t-30.5 -245.5z" />
<glyph unicode="P" horiz-adv-x="1188" d="M40 1443v46l3 5l294 -5q211 5 292 5q104 0 187 -15.5t137 -43t92 -61t57.5 -75.5t27.5 -80t8 -81q0 -46 -13 -92.5t-47.5 -95t-87 -85.5t-138 -60.5t-192.5 -23.5h-10h-218l1 -615q0 -54 29.5 -78.5t96.5 -24.5h61q20 0 20 -19v-43l-5 -4q-201 4 -291 4l-299 -4l-4 4v43 q0 19 18 19h61q68 0 97 26t29 77l-1 1161q0 58 -24 79t-96 21h-69q-16 0 -16 16zM432 860h183q155 0 249.5 67t94.5 206q0 68 -20.5 120t-52 81.5t-75.5 47.5t-83 24t-83 6q-105 0 -146 -5.5t-54 -21t-13 -56.5v-469z" />
<glyph unicode="Q" horiz-adv-x="1585" d="M85 703q0 225 92.5 409t257.5 289.5t368 105.5q153 0 289 -61t232 -164t151.5 -243t56.5 -292v-2q0 -144 -43 -276t-121 -237t-194.5 -176.5t-255.5 -91.5q139 -78 224 -78q57 0 111 21t89 64l41 -29q-69 -98 -146.5 -143.5t-185.5 -45.5q-34 0 -100 19.5t-156 61 t-186 98.5t-190 138t-168.5 174t-120 212.5t-45.5 246.5zM297 742q0 -203 72 -358.5t191 -245.5q134 -102 291 -102q203 0 336 181t133 485q0 352 -148 539t-398 187q-69 0 -135 -24t-129 -78t-109.5 -132t-75 -194.5t-28.5 -257.5z" />
<glyph unicode="R" horiz-adv-x="1456" d="M40 0v43q0 19 18 19h61q67 0 96.5 26t29.5 77v1162q0 55 -13.5 80t-55.5 25q-11 0 -16 -1l-70 -7q-18 0 -18 16v43q41 10 194 19.5t342 9.5q137 0 241 -23t179 -95q122 -115 122 -287q0 -85 -34.5 -160.5t-87.5 -124t-102 -79t-93 -45.5l24 -31l315 -432 q56 -78 116 -124.5t129 -46.5q17 0 17 -17v-45l-3 -4q-129 4 -245 4l-289 -4l-8 4v47q0 15 15 15h47q75 0 75 26q0 16 -45 80l-322 456q-14 19 -56.5 23.5t-170.5 4.5v-489q0 -54 29 -78.5t97 -24.5h61q19 0 19 -19v-43l-4 -5q-201 5 -292 5l-298 -5zM432 749h117 q256 0 339 119q75 108 75 243q0 79 -21 140.5t-54.5 98.5t-78 61t-87.5 33t-88 9q-116 0 -202 -19v-685z" />
<glyph unicode="S" horiz-adv-x="1072" d="M78 6q15 87 23 158q3 37 5 122.5t7 145.5l70 6l-1 -21v-14q0 -131 84 -230.5t214 -110.5q14 -1 26 -1q119 0 201.5 80t82.5 210q0 76 -18.5 131t-58.5 91.5t-78.5 58.5t-101.5 46q-47 18 -78 31t-82.5 39t-87 50t-77 60t-67 74t-42.5 89t-17 107q0 118 63 211t163 141 t217 48q72 0 182 -28t153 -33l-16 -331l-73 -13q-6 144 -79 235t-195 91q-105 0 -179.5 -76.5t-74.5 -182.5q0 -198 327 -314q48 -17 83.5 -32t81 -37.5t77.5 -46t65.5 -58t53.5 -72.5t33 -89t13 -109q0 -182 -131.5 -318.5t-324.5 -136.5q-78 0 -138 13t-87.5 28.5 t-53 28.5t-42.5 13q-20 0 -31.5 -12t-18.5 -39z" />
<glyph unicode="T" horiz-adv-x="1427" d="M17 1098q29 189 36 398h875h446q7 -209 36 -398l-69 -11q-6 34 -18.5 72t-34.5 83t-49 80.5t-65.5 59.5t-81.5 24h-153q-63 0 -87 -20.5t-24 -76.5v-1141q0 -54 29.5 -77.5t97.5 -23.5h61q19 0 19 -20v-42l-4 -5q-203 5 -293 5l-297 -5l-5 5v42q0 20 18 20h61 q69 0 98 25.5t29 75.5v1146q0 53 -24.5 72.5t-87.5 19.5h-194q-43 0 -82 -24t-65.5 -59.5t-48.5 -80.5t-34.5 -83t-19.5 -72z" />
<glyph unicode="U" horiz-adv-x="1527" d="M0 1453v43l5 5q201 -5 291 -5l298 5l5 -5v-43q0 -19 -18 -19h-61q-69 0 -98 -25t-29 -76v-684q0 -75 2.5 -118t13 -107t37 -115t70.5 -95q118 -117 243 -117q16 0 33 2q111 13 184.5 53.5t168.5 132.5v1047q0 52 -24.5 77t-83.5 25h-47q-22 0 -22 19v43l6 5 q171 -5 268 -5l258 5l5 -5v-43q0 -19 -20 -19h-48q-60 0 -83 -25t-23 -77v-1050q0 -91 13 -116.5t43 -25.5q50 0 105 11l12 -63q-115 -18 -161 -30t-99 -37q-41 -19 -62 -19h-37l6 200h-6q-208 -200 -403 -200q-69 0 -135.5 13t-141.5 52t-130 99.5t-91.5 165t-36.5 240.5 v761q0 55 -29.5 78t-97.5 23h-61q-19 0 -19 19z" />
<glyph unicode="V" horiz-adv-x="1508" d="M0 1453v43l8 5q176 -5 267 -5l307 5l4 -5v-43q0 -19 -18 -19h-64q-108 0 -108 -63q0 -20 7 -39l148 -399l261 -707l240 576l220 530q11 24 11 43q0 59 -108 59h-66q-20 0 -20 19v43l5 5q133 -4 190 -4l147 -3l4 -5v-43l-599 -1402q-17 -38 -31 -53t-32 -15 q-29 0 -47.5 16t-31.5 52l-474 1254q-26 70 -65.5 103t-105.5 33h-26q-8 0 -15.5 5t-7.5 14z" />
<glyph unicode="W" horiz-adv-x="1864" d="M0 1451v43l6 4q168 -4 258 -4l249 4l6 -4v-43q0 -19 -22 -19h-61q-40 0 -58.5 -33t-18.5 -80q0 -12 1 -24l68 -1035l522 1225q10 26 33 26q24 0 34 -26l484 -1201l96 1013q0 62 -16 98.5t-62 36.5h-61q-8 0 -15.5 5t-7.5 14v41l5 6q122 -4 212 -4l209 4l3 -4v-43 q0 -19 -22 -19h-61q-86 0 -98 -135l-121 -1297h-154l-473 1180q-13 29 -20 29q-8 0 -21 -32l-503 -1177h-115l-87 1295q-6 67 -27 102t-74 35h-61q-27 0 -27 19z" />
<glyph unicode="X" horiz-adv-x="1526" d="M7 0v46q0 16 25 16q48 0 90.5 16t77 47.5t53 53.5t45.5 58l318 433q24 31 24 55q0 26 -34 69l-333 474q-35 51 -70 85.5t-60 48t-47.5 20.5t-36 6.5t-21 2.5t-7.5 12v46l11 5q117 -5 233 -5q136 0 276 5q9 -5 11 -5v-45q0 -17 -12 -17h-74q-52 0 -52 -24q0 -26 42 -81 l274 -407q18 -26 28.5 -26t30.5 29l298 404q35 49 35 78q0 27 -48 27h-72q-15 2 -15 16v46l4 5q199 -5 231 -5q143 0 225 5l5 -5v-45q0 -17 -21 -17q-41 0 -75.5 -8.5t-57 -19.5t-47 -35t-37.5 -40l-38 -49l-302 -409q-30 -41 -30 -69q0 -26 38 -78l406 -552 q78 -104 181 -104h16q8 0 15.5 -5t7.5 -14v-43l-8 -4q-173 4 -264 4l-139 -4l-4 4v15q0 83 -48 151l-306 434q-19 27 -31 27q-8 0 -34 -34l-308 -419q-30 -42 -30 -70q0 -43 66 -43h45q13 -1 13 -17v-45l-7 -5q-226 5 -260 5l-193 -5z" />
<glyph unicode="Y" horiz-adv-x="1367" d="M47 1446v47l4 3q215 -4 245 -4l264 4l4 -3v-44q0 -20 -15 -20h-65q-33 0 -46 -6.5t-13 -22.5q0 -19 28 -68l321 -539l292 539q26 49 26 67t-11.5 24t-47.5 6h-68q-14 2 -14 17v46l4 4q183 -4 212 -4l203 4l3 -3v-45q0 -19 -22 -19h-49q-51 0 -80 -22t-60 -79l-391 -730 l-222 -419q-26 -55 -26 -71q0 -42 67 -42h44q13 -2 13 -17v-46l-6 -4q-226 4 -260 4l-193 -4l-4 4v47q0 16 25 16q92 0 158.5 53.5t103.5 121.5l192 355l-421 732q-40 69 -77 91q-15 10 -66 10h-28q-24 4 -24 17z" />
<glyph unicode="Z" horiz-adv-x="1365" d="M94 34q0 27 20 54l898 1251q21 27 21 45q0 19 -25 19h-567q-60 0 -108 -45t-80 -161l-62 6q32 178 35 319h58q3 -11 20 -19.5t42 -8.5h777q41 0 89 5.5t57 5.5q32 0 41.5 -5.5t9.5 -19.5q0 -37 -54 -113l-867 -1201q-20 -28 -20 -46q0 -30 58 -30h539q49 0 91 23.5 t68.5 58t46.5 78t29 82.5t13 73l61 -6l-49 -450q-14 4 -86 27.5t-105 23.5h-907q-44 0 -44 34z" />
<glyph unicode="[" horiz-adv-x="774" d="M203 -463v2059h498v-102h-339v-1856h339v-101h-498z" />
<glyph unicode="\" horiz-adv-x="664" d="M26 1615h102l532 -1727h-102z" />
<glyph unicode="]" horiz-adv-x="774" d="M73 -362h339v1856h-339v102h498v-2059h-498v101z" />
<glyph unicode="^" horiz-adv-x="1198" d="M259 802l292 702h98l291 -702h-103l-238 571l-237 -571h-103z" />
<glyph unicode="_" horiz-adv-x="1126" d="M11 -255h1105v-102h-1105v102z" />
<glyph unicode="`" horiz-adv-x="907" d="M223 1542l5 25q67 55 151 55q20 0 33 -6l162 -291q15 -27 15 -55q0 -9 -10.5 -17t-23.5 -8q-18 0 -67 45z" />
<glyph unicode="a" horiz-adv-x="1131" d="M56 479q0 153 58 276t166.5 195.5t246.5 72.5q176 0 289 -100l35 57q28 43 50 43q29 0 29 -57v-689q0 -95 9 -122q5 -15 20 -24.5t31 -9.5q79 0 114 6l9 -64q-123 -22 -196.5 -42.5t-107.5 -48.5h-55l3 75q-93 -75 -241 -75q-96 0 -175 32t-131 84t-87.5 120t-51 135.5 t-15.5 135.5zM233 525q0 -100 22.5 -180.5t57.5 -130t81.5 -82.5t90 -46t87.5 -13q116 0 185 51v653q-102 167 -239 167q-135 0 -210 -116t-75 -303z" />
<glyph unicode="b" horiz-adv-x="1219" d="M11 1555q59 0 161 20q46 9 114 39h51v-824q17 34 34.5 62t48.5 61.5t67 56t90 38t117 15.5q117 0 205.5 -43.5t137.5 -118.5t72.5 -161t23.5 -185q0 -223 -155 -383t-373 -160q-89 0 -160.5 32t-128 99.5t-88 181.5t-31.5 266l3 781q-8 161 -98 161l-74 -8q-4 -1 -8 2 t-4 9zM384 544q0 -151 25 -259t85 -173.5t152 -65.5q50 0 101 23t98.5 68.5t77.5 129t30 192.5q0 213 -76.5 350t-207.5 137q-68 0 -120.5 -30.5t-82.5 -76t-49.5 -103t-26 -104.5t-6.5 -88z" />
<glyph unicode="c" horiz-adv-x="933" d="M85 483q0 245 124 392.5t332 147.5q122 0 260 -67q19 -107 25 -236l-62 -4q-35 139 -79 183.5t-140 44.5q-140 0 -211 -109.5t-71 -302.5q0 -199 94.5 -329t231.5 -130q141 0 259 170l40 -33q-73 -128 -158 -183t-192 -55q-207 0 -330 141.5t-123 369.5z" />
<glyph unicode="d" horiz-adv-x="1128" d="M79 514q0 68 15.5 136t51 135.5t87.5 119.5t131 84.5t175 32.5q148 0 241 -76v413q0 52 -22 77t-78 25h-68q-18 0 -18 19v43l5 5q181 -5 263 -5l249 5l4 -5v-43q0 -19 -19 -19h-44q-54 0 -76.5 -25t-22.5 -77v-1332q0 -56 -30 -56q-21 0 -50 43l-35 56q-113 -99 -289 -99 q-138 0 -246.5 72t-166 195.5t-57.5 275.5zM255 468q0 -187 75.5 -302.5t209.5 -115.5q138 0 240 166v653q-69 51 -186 51q-44 0 -87.5 -13t-89.5 -46t-81 -82.5t-58 -130t-23 -180.5z" />
<glyph unicode="e" horiz-adv-x="1081" d="M79 461q0 127 39.5 235.5t104 178.5t144.5 109t164 39q100 0 173 -33t114.5 -90t62 -120.5t25.5 -137.5h126q18 0 18 -14v-47q0 -15 -17 -23t-37 -8h-130h-609q-3 -25 -3 -46q0 -173 101.5 -295.5t230.5 -122.5q93 0 159.5 31t129.5 99l46 -39q-68 -93 -169 -149 t-221 -56q-115 0 -204.5 40.5t-142 110t-79 155.5t-26.5 183zM264 641h425q34 0 34 31q0 77 -18 133t-48 85t-61.5 41.5t-66.5 12.5q-22 0 -45 -4t-59.5 -22.5t-66 -48t-56 -89t-38.5 -139.5z" />
<glyph unicode="f" horiz-adv-x="703" d="M-46 -269q0 29 19.5 53t50.5 24q54 0 78 -48q4 -9 7 -29.5t11 -31.5t29 -11q22 0 36 33.5t19.5 101t7.5 126t2 150.5v34v33v738h-160q-12 0 -12 14v31q0 17 13 31t40 14h119v92q0 131 31.5 234.5t85.5 166t121.5 95.5t141.5 33q120 0 206 -62q68 -51 68 -112 q0 -35 -22.5 -59t-56.5 -24q-65 0 -95 66q-45 112 -144 112q-26 0 -46.5 -8t-43.5 -34t-38 -69.5t-25.5 -120t-10.5 -179.5v-131h256q18 0 18 -13v-46q0 -15 -17 -23t-37 -8h-220v-714q0 -303 -66 -445.5t-196 -142.5q-86 0 -128 43t-42 86z" />
<glyph unicode="g" horiz-adv-x="1076" d="M62 452q0 137 47.5 249.5t122 180t161 104.5t170.5 37q149 0 248 -86q16 31 41 58t43 28h29v-950q0 -415 -168 -534q-107 -76 -254 -76q-67 0 -148 26.5t-143.5 77t-62.5 106.5q0 38 21.5 60.5t57.5 22.5q30 0 50.5 -12.5t29 -26t21.5 -40.5q66 -140 185 -140 q70 0 117.5 35.5t73.5 105.5t36.5 157t10.5 208v61q-122 -132 -292 -132q-70 0 -141.5 36t-128 98t-92 153t-35.5 193zM241 483q0 -162 79.5 -286.5t185.5 -124.5q56 0 123.5 23t121.5 80v686q-72 88 -176 88q-106 0 -183 -65t-114 -169t-37 -232z" />
<glyph unicode="h" horiz-adv-x="1184" d="M43 5v42q0 20 18 20h44q55 0 77.5 24.5t22.5 76.5v1448h50q61 -27 122 -39q102 -20 161 -20l-5 -59q0 -11 -12 -11l-75 8q-36 0 -52.5 -35t-16.5 -124v-9v-213v-280q191 191 381 191q248 0 250 -366l1 -474q0 -62 21 -89t81 -27q16 0 38 2l7 -3v-60l-7 -6q-156 5 -230 5 l-85 -5l2 184l-1 499q0 137 -39.5 184t-140.5 47q-106 0 -278 -169v-579q0 -52 22 -76.5t78 -24.5h44q19 0 19 -20v-42l-4 -5q-159 5 -249 5l-240 -5z" />
<glyph unicode="i" horiz-adv-x="692" d="M67 937q105 18 146 30t94 36q41 20 58 20h35v-711q0 -113 16.5 -162t61.5 -49q84 0 165 63l42 -40q-136 -152 -288 -152q-84 0 -127 54t-43 176v540q0 86 -12.5 114.5t-39.5 28.5q-41 0 -97 -12zM179 1321q0 46 32.5 78.5t77.5 32.5t78 -32.5t33 -78.5t-33 -78.5 t-78 -32.5t-77.5 32.5t-32.5 78.5z" />
<glyph unicode="j" horiz-adv-x="569" d="M38 980v43l5 4q167 -4 250 -4l258 4l5 -4v-43q0 -20 -19 -20h-54q-55 0 -77.5 -24.5t-22.5 -76.5v-1449h-51q-61 27 -122 39q-102 20 -160 20l4 59q0 11 13 11l74 -8q36 0 52.5 36t16.5 132v1160q0 52 -22 76.5t-77 24.5h-55q-18 0 -18 20z" />
<glyph unicode="k" horiz-adv-x="1030" d="M43 0v43q0 19 18 19h44q55 0 77.5 25t22.5 77v1159q0 96 -16.5 132.5t-52.5 36.5l-75 -8q-12 0 -12 11l-5 59q59 0 161 20q61 11 122 39h50v-1205l309 420q37 51 37 77q0 27 -47 27h-36q-16 0 -16 17v43l7 7q110 -5 180 -5l188 5l3 -5v-44q0 -18 -28 -18q-64 0 -103 -26 t-103 -109l-161 -213v-7l85 -236q111 -297 193 -298h24q23 0 23 -19v-43l-5 -5l-157 3q-37 1 -69 25.5t-58.5 72.5t-40 79.5t-32.5 83.5l-55 143q-12 31 -26 46q-107 -141 -112 -148v-117q0 -52 23 -77t77 -25h4q20 0 20 -19v-43l-5 -5q-119 5 -209 5l-240 -5z" />
<glyph unicode="l" horiz-adv-x="662" d="M47 1556q59 0 161 20q61 12 122 39h51v-1303q0 -113 16.5 -162t61.5 -49q83 0 165 63l42 -40q-136 -152 -289 -152q-83 0 -126 54.5t-43 175.5v1123q0 97 -16.5 133t-52.5 36l-51 -6l-24 -2q-12 0 -12 11z" />
<glyph unicode="m" horiz-adv-x="1759" d="M54 935q108 18 149.5 29.5t91.5 36.5q36 19 58 19h35l-7 -200h7q47 50 82 81t79 61t90.5 44t98.5 14q91 0 151.5 -57.5t72.5 -140.5q100 103 187 150.5t181 47.5q59 0 102.5 -19.5t69 -52t40.5 -82.5t20 -101.5t5 -119.5v-481q0 -52 23 -77t77 -25h44q19 0 19 -19v-43 l-4 -5q-159 5 -249 5l-241 -5l-4 5v43q0 19 18 19h44q56 0 78 25t22 77v533q0 212 -148 212q-67 0 -127.5 -37.5t-144.5 -130.5q3 -29 3 -94v-483q0 -52 23 -77t77 -25h41q19 0 19 -19v-43l-5 -5q-155 5 -245 5l-243 -5l-4 5v43q0 19 18 19h47q55 0 77.5 25t22.5 77v529 q0 110 -41 163t-110 53q-58 0 -119.5 -40.5t-146.5 -130.5l2 -432v-311q-52 5 -85 5l-234 -5l-7 6v60l7 3q23 -2 42 -2q60 0 81 27t21 90v561q0 63 -7.5 95.5t-17 40t-27.5 7.5q-48 0 -97 -12z" />
<glyph unicode="n" horiz-adv-x="1192" d="M42 933q88 17 135 27.5t97 28t75 36.5h52l-7 -172h7q159 172 326 172q82 0 141.5 -26t90.5 -72.5t44.5 -99t13.5 -116.5v-528q0 -62 21 -89t81 -27q16 0 38 2l7 -3v-60l-7 -6q-156 5 -230 5l-85 -5l2 184v494q0 59 -12 103.5t-30 70.5t-43 42.5t-47 21.5t-44 5 q-76 0 -150 -55q-80 -60 -117 -104v-573q0 -68 18 -95t79 -27q31 0 47 2l4 -6v-56l-4 -7q-164 5 -229 5l-91 -5l3 182v546q0 88 -11.5 120.5t-46.5 32.5q-54 0 -119 -11z" />
<glyph unicode="o" horiz-adv-x="1172" d="M79 513q0 137 64 254.5t181.5 189t261.5 71.5q125 0 224 -41.5t160 -113.5t92.5 -163.5t31.5 -196.5q0 -231 -138.5 -383.5t-369.5 -152.5q-226 0 -366.5 151t-140.5 385zM252 513q0 -185 95.5 -314t238.5 -129q160 0 247.5 121.5t87.5 321.5q0 184 -87 303.5t-248 119.5 q-150 0 -242 -121t-92 -302z" />
<glyph unicode="p" horiz-adv-x="1107" d="M11 -556l5 59q0 11 12 11l75 -8q36 0 52.5 36.5t16.5 132.5v1157q0 116 -7 182l47 11q48 -50 73 -86q99 86 239 86q91 0 178.5 -39t159 -109.5t116 -182t44.5 -244.5q0 -103 -33.5 -193.5t-88.5 -151.5t-125.5 -96t-146.5 -35q-166 0 -283 128v-717h-51q-61 27 -122 39 q-102 20 -161 20zM345 173q40 -42 96.5 -66.5t86 -28t53.5 -3.5q108 0 185 115.5t77 289.5q0 206 -86 336t-245 130q-55 0 -94 -16.5t-73 -57.5v-699z" />
<glyph unicode="q" horiz-adv-x="1118" d="M82 545q0 123 46 231.5t133 177.5t196 69q183 0 303 -186h7l-7 186h36q21 0 57 -20q52 -24 93.5 -36t147.5 -30l-11 -64q-57 12 -98 12q-26 0 -39 -22t-13 -83v-1146q0 -52 22 -77t78 -25h44q18 0 18 -19v-43l-5 -4q-157 4 -239 4l-249 -4l-4 4v43q0 19 19 19h44 q54 0 76.5 25t22.5 77v389q-91 -51 -207 -51q-172 0 -308 135q-163 163 -163 438zM263 483q0 -84 13.5 -154t45.5 -135.5t94 -103.5t150 -38q112 0 194 98v578q-36 86 -107 137t-135 51q-110 0 -182.5 -115.5t-72.5 -317.5z" />
<glyph unicode="r" horiz-adv-x="917" d="M45 -5q158 5 260 5l258 -5v49q0 18 -19 18h-68q-55 0 -70 20t-15 80v732h269q52 0 91 -40t56 -85.5t27 -97.5l61 5l-19 316h-831v-43q1 -21 18 -21h69q59 -3 72.5 -23.5t13.5 -80.5v-662q0 -57 -14.5 -78.5t-71.5 -21.5h-69q-18 0 -18 -17v-50z" />
<glyph unicode="s" horiz-adv-x="858" d="M99 324l63 3q6 -57 27 -122t56 -101q24 -25 68.5 -46.5t102.5 -21.5q69 0 135.5 51t66.5 129q0 77 -52.5 131.5t-186.5 113.5q-74 32 -113.5 54t-77 56t-52 78t-14.5 107q0 112 94.5 188t219.5 80h9q78 0 152 -34t121 -91.5t47 -122.5q0 -42 -26 -66.5t-67 -24.5 q-45 0 -68 24t-23 51q0 20 8 42q7 21 7 40q0 50 -45 79t-107 29q-71 0 -124.5 -40.5t-53.5 -116.5q0 -70 36.5 -110.5t131.5 -75.5q79 -30 134 -57.5t105 -67.5t75.5 -93t25.5 -121q0 -66 -26.5 -119t-66 -85t-88.5 -53.5t-92 -30t-80 -8.5q-115 0 -207 25q-20 5 -44 5 q-21 0 -55 -7q0 129 -16 329z" />
<glyph unicode="t" horiz-adv-x="689" d="M45 915v73q0 9 9 9q111 0 151.5 63t40.5 203v44l133 47v-357h255q18 0 18 -14v-46q0 -15 -17 -23t-37 -8h-219l1 -740q0 -63 14.5 -84.5t73.5 -23.5l37 -2q19 -2 19 -13v-48q-10 0 -108 4t-127 4q-20 0 -59.5 -1.5t-91 -3t-75.5 -3.5v46q0 14 14 15l42 2q58 2 73 21.5 t15 86.5v740h-151q-11 0 -11 9z" />
<glyph unicode="u" horiz-adv-x="1221" d="M45 954v43l5 4q158 -4 248 -4l229 4l4 -4v-43q0 -19 -18 -19h-33q-55 0 -77 -25t-22 -77v-506q0 -129 31 -184t118 -55q80 0 152 38.5t156 137.5v569q0 52 -22.5 77t-76.5 25h-33q-19 0 -19 19v43l5 4q146 -4 237 -4l239 4l5 -4v-43q0 -19 -18 -19h-44q-56 0 -78 -25 t-22 -77v-576q0 -87 12.5 -115t39.5 -28q41 0 96 11l13 -63q-166 -28 -239 -67q-38 -19 -60 -19h-35l7 206h-7q-102 -121 -190 -163.5t-187 -42.5q-61 0 -106 19t-73 50.5t-45 79.5t-23 99.5t-6 117.5v491q0 52 -22.5 77t-77.5 25h-44q-19 0 -19 19z" />
<glyph unicode="v" horiz-adv-x="1159" d="M20 947v45l6 5q112 -5 182 -5l275 5l4 -7v-42q0 -8 -8 -13t-17 -5h-42q-34 -1 -47.5 -9t-13.5 -26q0 -26 17 -69l282 -693q296 485 296 609q0 72 -40 125q-31 42 -31 90q0 34 26.5 64t73.5 30q51 0 82.5 -36t31.5 -87q0 -58 -28 -148q-51 -164 -141.5 -330t-284.5 -450 h-109l-348 857q-30 73 -126 73h-17q-23 0 -23 17z" />
<glyph unicode="w" horiz-adv-x="1716" d="M19 929v60l7 5q156 -4 231 -4l84 4l-2 -184v-494q0 -57 12 -102.5t30 -70.5t43 -41.5t47 -22.5t44 -6q76 0 151 56q79 61 116 104q-22 72 -22 160v321v103q0 111 -123 111q-21 0 -21 17v45l4 4q130 -4 211 -4l230 4l7 -4v-44q0 -18 -22 -18h-43q-65 0 -65 -33 q0 -7 -2.5 -30.5t-2.5 -42.5v-436q0 -134 66.5 -223.5t206.5 -89.5q97 0 175 71t117.5 176.5t39.5 220.5q0 152 -40.5 222.5t-100.5 80.5q-96 13 -96 87q0 34 24.5 59.5t70.5 25.5q227 0 227 -446q0 -146 -36 -264t-94.5 -191t-132.5 -111.5t-154 -38.5q-277 0 -384 177 l-15 30l-25 -31q-89 -96 -167.5 -134t-157.5 -38q-67 0 -118.5 18.5t-83.5 47t-52.5 70.5t-28.5 85.5t-8 93.5v527q0 62 -21 89.5t-81 27.5q-15 0 -38 -3z" />
<glyph unicode="x" horiz-adv-x="1198" d="M51 0v40q0 22 30 22q50 0 94.5 25.5t111.5 111.5l217 284q6 6 6 15t-7 20l-180 263q-55 82 -93 115.5t-94 33.5q-13 0 -22.5 5t-9.5 12v43l4 7l184 -5l255 5l7 -7v-42q0 -8 -5 -13t-12 -5h-36q-33 0 -44 -7t-11 -20q0 -22 35 -75l151 -226q12 -19 23 -19q9 0 21 15 l167 229q37 52 37 77q0 27 -47 27h-36q-16 0 -16 17v43l7 7l180 -5l188 5l3 -5v-44q0 -18 -28 -18h-8q-27 0 -48 -5t-35.5 -11t-35 -27t-34 -36.5t-45.5 -55.5l-209 -266q-7 -10 -7 -17t7 -18l197 -278q32 -45 56 -73.5t41.5 -45t38 -23.5t34.5 -9t41 -2q33 0 33 -19v-43 l-4 -4q-125 4 -204 4l-240 -4l-5 4v44q0 18 18 18h27q52 0 52 25q0 21 -61 105l-157 217q-12 17 -19 17t-23 -22l-169 -243q-41 -59 -41 -76q0 -25 49 -25h31q16 0 16 -18v-44l-3 -5q-120 5 -196 5l-172 -5z" />
<glyph unicode="y" horiz-adv-x="1175" d="M25 933v43l4 5q159 -5 249 -5l240 5l4 -5v-43q0 -19 -18 -19h-44q-55 0 -77.5 -25t-22.5 -77v-516q0 -137 40 -184.5t140 -47.5q106 0 278 170v578q0 52 -22 77t-77 25h-44q-20 0 -20 19v43l5 5q158 -5 249 -5l239 5l5 -5v-43q0 -19 -18 -19h-45q-55 0 -77 -25t-22 -77 v-812q0 -232 -31.5 -347.5t-126.5 -210.5q-89 -89 -186 -89q-76 0 -145.5 34t-69.5 83q0 42 20.5 65.5t52.5 23.5q37 0 61.5 -30t35.5 -71q9 -38 36 -38q81 0 129.5 119.5t55.5 356.5l-5 251q-191 -191 -381 -191q-249 0 -249 366v490q0 52 -23 77t-77 25h-44q-19 0 -19 19z " />
<glyph unicode="z" horiz-adv-x="981" d="M50 55l151 212l306 421q153 211 155 214h-261q-137 0 -194 -207l-62 7q31 177 35 318h57q4 -11 21 -19.5t41 -8.5h452q30 0 57.5 16t66.5 60l62 -36l-300 -410l-299 -410q7 2 20 2q105 0 164 -32q98 -54 156 -54q55 0 105 35.5t113 143.5l58 -23q-77 -179 -141.5 -245.5 t-143.5 -66.5q-103 0 -198 57q-101 65 -176 65q-60 0 -132 -122q-113 81 -113 83z" />
<glyph unicode="{" horiz-adv-x="632" d="M90 564v12q155 44 155 279v439q0 189 65 268t255 84v-33q-70 -20 -114 -95q-36 -63 -36 -206v-419q0 -104 -16.5 -166.5t-48.5 -96t-92 -59.5q95 -41 126 -118t31 -233v-380q0 -144 39 -215q21 -36 45 -58t36 -26.5t30 -9.5v-34q-199 6 -258 85q-62 85 -62 293v404 q0 78 -12 132.5t-47.5 96.5t-95.5 56z" />
<glyph unicode="|" horiz-adv-x="475" d="M188 -539v2154h102v-2154h-102z" />
<glyph unicode="}" horiz-adv-x="632" d="M68 -469q70 19 114 95q36 62 36 206v419q0 104 16.5 166t48.5 96t92 60q-95 41 -126 117.5t-31 232.5v381q0 144 -39 215q-21 36 -45 58t-36 26.5t-30 9.5v33q199 -5 257 -84q63 -85 63 -293v-405q0 -78 11.5 -132t47.5 -96.5t95 -55.5v-13q-154 -44 -154 -279v-438 q0 -189 -65 -268t-255 -85v34z" />
<glyph unicode="~" horiz-adv-x="1039" d="M61 485q21 116 107 206t188 90q25 0 57 -12.5t53 -24.5l62 -39l60 -37q21 -13 52.5 -25t55.5 -12q37 0 78 13.5t85 50t68 90.5l38 -15q-20 -71 -51 -124t-61 -80.5t-64 -45t-57 -22t-44 -4.5q-41 0 -81 19t-94 57l-58 36q-22 14 -53.5 26t-59.5 12q-64 0 -138.5 -47 t-113.5 -121z" />
<glyph unicode="&#xa1;" horiz-adv-x="526" d="M136 -359q0 86 26 234t33 213q13 110 21.5 206t11.5 152t4 61q3 47 32 47q31 0 33 -30q0 -1 12 -165t23 -271q8 -81 33.5 -219t25.5 -228q0 -85 -39.5 -127t-87.5 -42q-52 0 -90 43.5t-38 125.5zM142 899.5q0 50.5 36.5 87t87 36.5t87 -36.5t36.5 -87t-36.5 -87 t-87 -36.5t-87 36.5t-36.5 87z" />
<glyph unicode="&#xa2;" d="M107 646q0 111 31.5 207t85 164t126.5 111.5t156 54.5v170h79v-167q149 -5 234 -73.5t85 -162.5q0 -48 -25.5 -74t-63.5 -26q-41 0 -70 20t-33 61q-2 26 -5.5 44t-12 43t-21 41t-35 29t-53.5 17v-867q13 -1 26 -1q142 0 259 170l41 -33q-70 -121 -148.5 -176.5 t-177.5 -60.5v-164h-79v165q-183 19 -291 158t-108 350zM286 696q0 -157 61 -274t159 -162v843q-98 -23 -159 -132.5t-61 -274.5z" />
<glyph unicode="&#xa3;" d="M40 32q0 56 110 114q91 66 123.5 183t32.5 287v36h-140q-8 0 -10 3t-2 11v31q0 17 13 31t40 14h99v46q0 136 41 234t132 189q119 119 293 119q30 0 68 -9t72.5 -34.5t34.5 -61.5q0 -41 -25.5 -65.5t-66.5 -24.5q-31 0 -78 41q-57 51 -108 51q-78 0 -133.5 -94.5 t-55.5 -234.5v-156h274q18 0 18 -13v-48q0 -13 -17 -21t-37 -8h-238q-2 -312 -159 -452h11q70 0 122 -11.5t82 -27t55.5 -31.5t57 -27t71.5 -11q59 0 123 23.5t103 75.5l39 -21q-40 -90 -120 -144t-185 -54q-54 0 -96.5 14t-71.5 34l-58 40q-28 19 -70 33t-95 14 q-51 0 -71.5 -18t-20.5 -42q0 -36 -24.5 -55.5t-64.5 -19.5q-30 0 -49 17t-19 43z" />
<glyph unicode="&#xa4;" d="M61 314l123 100q-90 110 -90 253q0 149 91 255l-119 95l85 90l106 -116q113 81 248 81q140 0 251 -87l107 129l91 -95l-127 -103q86 -104 86 -249q0 -138 -85 -249l121 -102l-83 -88l-107 120q-114 -87 -254 -87t-251 84l-98 -124zM234 669q0 -130 75.5 -220t195.5 -90 q119 0 193.5 90t74.5 218q0 129 -77.5 218t-185.5 89q-119 0 -197.5 -89t-78.5 -216z" />
<glyph unicode="&#xa5;" d="M-10 1280v48l3 3q42 -6 206 -6q141 0 198 6l4 -3v-45q0 -20 -16 -20h-30q-52 0 -52 -29q0 -22 22 -69l240 -495l210 495q24 53 24 72q0 15 -12.5 20.5t-45.5 5.5h-29q-14 1 -14 17v48l5 3q108 -7 173.5 -7t156.5 7l2 -3v-47q0 -5 -0.5 -8.5t-5.5 -6.5t-14 -3 q-60 0 -91 -26t-65 -101l-227 -514h277q18 0 18 -14v-48q0 -13 -17 -21t-38 -8h-269v-147h306q18 0 18 -13v-48q0 -13 -17 -21t-38 -8h-269v-128q0 -53 29.5 -77.5t97.5 -24.5h61q20 0 20 -19v-43l-4 -4q-201 4 -292 4l-298 -4l-5 4v43q0 19 19 19h61q68 0 97 25.5t29 76.5 v128h-310q-7 0 -9.5 2.5t-2.5 10.5v32q0 17 13 31t40 14h269v147h-310q-7 0 -9.5 3t-2.5 11v31q0 17 13 31.5t40 14.5h257l-248 510q-35 71 -69 101t-77 30q-22 0 -22 17z" />
<glyph unicode="&#xa6;" horiz-adv-x="474" d="M186 373h113v-839h-113v839zM186 722v839h113v-839h-113z" />
<glyph unicode="&#xa7;" horiz-adv-x="1079" d="M113 638q0 200 137 310q-58 70 -58 219q0 58 27.5 120t75 114.5t119.5 86.5t151 34q131 0 230.5 -83.5t99.5 -205.5q0 -36 -26 -62t-59 -26q-38 0 -62 19.5t-29 37.5t-5 34q0 39 17 62q10 18 10 31q0 4 -4.5 16.5t-16 31.5t-30 35t-49 28t-67.5 12q-96 0 -161.5 -73 t-65.5 -167q0 -75 40.5 -116.5t133.5 -84.5l82 -39q35 -18 85 -47.5t85.5 -58t74.5 -68.5t63.5 -81.5t40 -96t15.5 -113.5q0 -203 -141 -314q45 -40 61.5 -94t16.5 -129.5t-51.5 -158.5t-143.5 -142.5t-194 -59.5q-129 0 -229 84t-100 206q0 39 26 64t59 25q28 0 49 -11 t30 -27.5t13 -30t4 -23.5q0 -28 -14 -54.5t-14 -38.5q0 -5 4.5 -17.5t17.5 -31t31.5 -35t50.5 -28.5t69 -12q86 0 154 65.5t68 175.5q0 62 -34 115t-91 81q-279 138 -387.5 251t-108.5 271zM216 750q0 -112 92.5 -223t213.5 -168q129 -60 266 -132q76 67 76 169 q0 242 -418 452q-41 21 -152 71q-78 -67 -78 -169z" />
<glyph unicode="&#xa8;" horiz-adv-x="868" d="M127 1330q0 43 31 74t74 31t74 -31t31 -74t-31 -74t-74 -31t-74 31t-31 74zM498 1330q0 43 31 74t74 31t74.5 -31t31.5 -74t-31.5 -74t-74.5 -31t-74 31t-31 74z" />
<glyph unicode="&#xa9;" horiz-adv-x="1465" d="M79 709q0 177 87.5 327t238.5 238t328.5 88t327.5 -88t238 -238t88 -327.5t-88 -328.5t-238 -238.5t-328 -87.5q-133 0 -254.5 52t-209 140t-139 209t-51.5 254zM151 709q0 -158 77.5 -291.5t211.5 -212t293 -78.5q157 0 291 77t212 211t78 294q0 158 -78 292t-211 211 t-292 77t-293 -78t-211.5 -211t-77.5 -291zM390 710q0 135 96.5 240t251.5 105q91 0 150.5 -16t88.5 -16l26 -181l-61 -9q-6 38 -11.5 58t-19 46t-32.5 39t-54 22t-84 9q-37 0 -72 -13.5t-70.5 -44.5t-57.5 -94t-22 -150q0 -123 61 -206t173 -83q132 0 210 120l48 -34 q-39 -62 -108 -104.5t-157 -42.5q-161 0 -258.5 105t-97.5 250z" />
<glyph unicode="&#xaa;" horiz-adv-x="688" d="M62 990q0 139 240 199l134 35q0 193 -125 193q-58 0 -92 -17.5t-34 -44.5q0 -22 5 -31t5 -28q0 -18 -15.5 -34t-45.5 -16q-27 0 -44 16.5t-17 43.5q0 65 81.5 116.5t159.5 51.5q48 0 87.5 -11.5t77 -38.5t59.5 -81.5t22 -132.5v-174q0 -132 32 -132q15 0 28 11l23 -36 q-17 -19 -47.5 -34.5t-59.5 -15.5q-41 0 -67 27.5t-32 63.5q-58 -53 -98.5 -72t-96.5 -19q-76 0 -128 44.5t-52 116.5zM183 997q0 -41 25 -68t79 -27q35 0 68 17.5t81 60.5v183q-146 -39 -199.5 -75t-53.5 -91z" />
<glyph unicode="&#xab;" horiz-adv-x="1240" d="M158 453v89q248 172 508 451v-117q-158 -233 -334 -379q170 -126 334 -377v-118q-280 323 -508 451zM577 453v89q245 171 507 451v-117q-155 -232 -333 -379q171 -127 333 -377v-118q-281 325 -507 451z" />
<glyph unicode="&#xac;" horiz-adv-x="1297" d="M56 826v102h1186v-621h-123v519h-1063z" />
<glyph unicode="&#xad;" horiz-adv-x="770" d="M77 585q0 29 18.5 57t38.5 28h529q33 0 33 -39q0 -23 -20.5 -54t-40.5 -31h-524q-16 0 -25 12t-9 27z" />
<glyph unicode="&#xae;" horiz-adv-x="1465" d="M79 709q0 177 87.5 327t238.5 238t328.5 88t327.5 -88t238 -238t88 -327.5t-88 -328.5t-238 -238.5t-328 -87.5q-133 0 -254.5 52t-209 140t-139 209t-51.5 254zM151 709q0 -158 77.5 -291.5t211.5 -212t293 -78.5q157 0 291 77t212 211t78 294q0 158 -78 292t-211 211 t-292 77t-293 -78t-211.5 -211t-77.5 -291zM478 386v28q0 12 25 12h27q11 0 15 3.5t4 15.5v515q0 26 -10 26l-37 -2q-23 1 -23 14v25q89 12 266 12q62 0 107.5 -17t69 -44.5t33.5 -56t10 -57.5q0 -34 -13.5 -64t-33 -49t-38.5 -34t-32 -21l-14 -6l111 -191q41 -71 91 -71 v-31q-28 -9 -52 -9q-100 0 -144 87l-111 184q-10 8 -63 8v-219q0 -7 1 -10t5 -5.5t12 -2.5h27q25 0 25 -14v-26q-98 6 -129 6zM666 713q28 0 47.5 1.5t47.5 9.5t45 23t30 43.5t13 69.5q0 61 -30.5 97.5t-87.5 36.5q-46 0 -65 -6v-275z" />
<glyph unicode="&#xaf;" horiz-adv-x="919" d="M136 1259q0 21 15.5 44.5t34.5 23.5h567q15 0 23 -10.5t8 -23.5q0 -22 -17 -45t-37 -23h-566q-28 0 -28 34z" />
<glyph unicode="&#xb0;" horiz-adv-x="619" d="M79 1216q0 96 67.5 163t163.5 67t163 -67t67 -163t-67 -163.5t-163 -67.5t-163.5 67.5t-67.5 163.5zM156 1214q0 -66 42.5 -115t111.5 -49t111 49.5t42 114.5q0 63 -40.5 115.5t-112.5 52.5q-70 0 -112 -51t-42 -117z" />
<glyph unicode="&#xb1;" horiz-adv-x="1220" d="M153 41v114h915v-114h-915zM153 676v114h401v402h114v-402h400v-114h-400v-400h-114v400h-401z" />
<glyph unicode="&#xb2;" horiz-adv-x="711" d="M104 843q0 76 56 146t154 148q60 47 89.5 78t48 76.5t18.5 105.5q0 72 -40 105.5t-83 33.5q-68 0 -96 -20t-28 -47q0 -9 5 -27t5 -28q0 -25 -21.5 -40.5t-41.5 -15.5q-23 0 -42.5 16.5t-19.5 39.5q0 24 14 53t41.5 58t78.5 48t115 19q63 0 116.5 -15.5t93 -61 t39.5 -114.5q0 -76 -50 -138.5t-156 -138.5q-153 -109 -153 -208h187q26 0 48 14.5t38.5 40.5t26.5 48.5t21 52.5l56 -13q-30 -108 -43 -216h-477z" />
<glyph unicode="&#xb3;" horiz-adv-x="711" d="M89 914q0 17 19 31t38 14q33 0 60 -31q31 -42 116 -42q16 0 35.5 4t45 17t46.5 33t35 56t14 81q0 46 -19.5 77.5t-51 45.5t-57.5 19t-54 5q-22 0 -46 -5l-4 57q78 10 124 53.5t46 113.5q0 50 -27 71.5t-67 21.5q-41 0 -83 -21t-44 -60q-3 -67 -59 -67q-20 0 -34 9.5 t-17 18.5t-3 15q0 17 14.5 42t43.5 53t84 47t127 19q90 0 142.5 -36.5t52.5 -98.5q0 -95 -117 -159q69 -6 127 -59.5t58 -144.5q0 -117 -98 -191t-239 -74q-71 0 -139.5 25.5t-68.5 59.5z" />
<glyph unicode="&#xb4;" horiz-adv-x="790" d="M206 1284q0 29 14 52l185 290q13 6 33 6q68 0 113 -43l15 -12l6 -24l-266 -252q-48 -46 -66 -46q-14 0 -24 8.5t-10 20.5z" />
<glyph unicode="&#xb5;" horiz-adv-x="1125" d="M102 992q30 0 97.5 11t92.5 13q6 -148 6 -223v-452q0 -264 160 -264q89 0 170.5 45t121.5 106v764q25 0 54 4t64.5 11t54.5 9v-729q0 -44 0.5 -66.5t2.5 -51t5.5 -41t10 -25.5t17.5 -17.5t25 -4.5q38 0 79 101l56 -24q-36 -96 -82 -141t-131 -45q-64 0 -110 49.5 t-46 117.5q-150 -167 -336 -167q-37 0 -74.5 17.5t-58.5 39.5q-10 0 -18 -5.5t-8 -13.5q0 -81 36.5 -225t36.5 -188q0 -69 -26 -104t-69 -35q-35 0 -79 44t-44 107q0 55 18.5 175.5t18.5 197.5q0 30 -11 142t-11 187v435q0 28 -6 89.5t-12 109.5z" />
<glyph unicode="&#xb6;" horiz-adv-x="1393" d="M62 1017q0 217 123 348t348 131q101 0 230.5 -6t146.5 -6l160 5l255 7v-50q0 -15 -12 -15h-69q-59 0 -75 -30t-16 -115v-1619q0 -66 8.5 -95t25 -38t57.5 -10h69q12 0 12 -18v-48h-760v48q0 18 14 18h67q57 3 74 29t17 116v856q-54 -28 -180 -28q-62 0 -124.5 13.5 t-131 51t-120.5 93.5t-85.5 149.5t-33.5 212.5zM872 -331q0 -148 69 -148q48 0 62 32t14 111v1622q0 49 -4.5 78t-16 41.5t-20.5 15.5t-27 4q-21 0 -36.5 -9t-22.5 -21t-12 -34t-5.5 -38t-0.5 -43v-1611z" />
<glyph unicode="&#xb7;" horiz-adv-x="578" d="M164 596.5q0 49.5 38 88t88 38.5q48 0 86.5 -38t38.5 -88t-36.5 -87.5t-88.5 -37.5q-55 0 -90.5 37.5t-35.5 87z" />
<glyph unicode="&#xb8;" horiz-adv-x="1252" d="M479 -380l25 51q87 -31 132 -31q57 0 98 25t41 69q0 37 -27.5 59.5t-68.5 22.5q-56 0 -104 -16l-15 15l92 201h78l-55 -135q27 7 59 7q72 0 118 -39t46 -104q0 -74 -69.5 -119t-176.5 -45q-84 0 -173 39z" />
<glyph unicode="&#xb9;" horiz-adv-x="711" d="M140 1462q155 58 269 130h37v-604q0 -38 17.5 -62t41.5 -24h65q13 0 13 -12v-47q-121 2 -199 2l-226 -2v49q0 10 17 10h83q28 0 49 24t21 62v351q0 59 -6.5 78.5t-27.5 19.5q-49 0 -132 -36z" />
<glyph unicode="&#xba;" horiz-adv-x="809" d="M90 993q0 147 85.5 232.5t234.5 85.5q83 0 144.5 -25.5t96.5 -69.5t52 -96.5t17 -113.5q0 -127 -84.5 -215.5t-237.5 -88.5q-129 0 -218.5 83.5t-89.5 207.5zM224 1017q0 -98 51.5 -175t147.5 -77q27 0 53.5 9t53 30t43 64t16.5 102q0 135 -52.5 208t-140.5 73 q-83 0 -127.5 -67.5t-44.5 -166.5z" />
<glyph unicode="&#xbb;" horiz-adv-x="1240" d="M111 2v118q155 231 332 378q-171 128 -332 378v117q280 -324 506 -451v-89q-244 -171 -506 -451zM529 2v118q157 233 333 378q-169 127 -333 378v117q279 -323 507 -451v-89q-247 -172 -507 -451z" />
<glyph unicode="&#xbc;" horiz-adv-x="1527" d="M132 1348q155 58 269 130h37v-605q0 -37 17.5 -61t41.5 -24h65q13 0 13 -12v-47q-121 2 -199 2l-226 -2v48q0 11 17 11h83q28 0 49 24t21 61v352q0 59 -6.5 78.5t-27.5 19.5q-49 0 -132 -36zM171 -124l1061 1514l96 -17l-1061 -1515zM880 68l356 505l69 -23l-293 -430 h211v177q0 17 15 41q43 48 62 48q29 0 29 -22v-244h126l-6 -79h-120v-116q0 -32 10 -44.5t42 -12.5h36q11 0 11 -10v-47q-98 3 -160 3l-143 -3v48q0 9 12 9h34q32 0 42 10t10 46v117h-334z" />
<glyph unicode="&#xbd;" horiz-adv-x="1527" d="M138 1348q155 58 269 130h37v-605q0 -37 17.5 -61t41.5 -24h64q14 0 14 -12v-47q-121 2 -199 2l-226 -2v48q0 11 17 11h82q29 0 49.5 24t20.5 61v352q0 59 -6 78.5t-27 19.5q-49 0 -133 -36zM171 -124l1061 1514l96 -17l-1061 -1515zM933 -182q0 76 56 146t155 148 q59 47 88.5 78t48.5 76.5t19 105.5q0 72 -40.5 105.5t-83.5 33.5q-67 0 -95.5 -20t-28.5 -47q0 -10 5 -28t5 -27q0 -25 -21.5 -40.5t-41.5 -15.5q-23 0 -42 16.5t-19 39.5q0 25 13.5 53.5t41 57.5t78.5 48t115 19t117 -15.5t92.5 -61t39.5 -114.5q0 -75 -49.5 -138 t-156.5 -139q-152 -109 -152 -207h186q26 0 48 14t38.5 40t27 48.5t21.5 52.5l55 -13q-29 -107 -43 -216h-477z" />
<glyph unicode="&#xbe;" horiz-adv-x="1527" d="M85 797q0 17 18.5 31t37.5 14q33 0 60 -32q32 -42 117 -42q15 0 35 4t45.5 17t46.5 33.5t35 56t14 80.5q0 47 -20 78.5t-51.5 45t-57.5 18.5t-53 5q-23 0 -46 -4l-5 56q78 10 124.5 53.5t46.5 113.5q0 50 -27.5 71.5t-66.5 21.5q-42 0 -84 -21t-44 -59q-2 -68 -59 -68 q-20 0 -33.5 9.5t-17 18.5t-3.5 15q0 17 15 42.5t43.5 53t84 47t126.5 19.5q91 0 143.5 -37t52.5 -99q0 -95 -118 -158q69 -7 127 -60t58 -145q0 -116 -97.5 -190t-238.5 -74q-72 0 -140 25.5t-68 59.5zM171 -124l1061 1514l96 -17l-1061 -1515zM889 73l356 506l69 -23 l-292 -431h210v178q0 17 16 41q42 48 61 48q29 0 29 -22v-245h126l-6 -79h-120v-115q0 -33 10 -45.5t42 -12.5h36q11 0 11 -10v-46q-98 2 -160 2l-142 -2v47q0 9 11 9h34q32 0 42 10.5t10 46.5v116h-334z" />
<glyph unicode="&#xbf;" horiz-adv-x="939" d="M86 -182q0 53 16.5 101.5t37 82.5t58.5 71.5t64 56.5l68 52q97 71 121 115q42 79 42 170v101q0 24 30 24q28 0 28 -24v-106q0 -38 -1.5 -64t-9.5 -69.5t-23 -78t-45.5 -78t-73.5 -83.5q-75 -68 -107.5 -126t-32.5 -136q0 -115 67 -202t165 -87q96 0 160.5 40t64.5 93 q0 40 -14.5 60t-14.5 55q0 38 27.5 60t64 22t65 -22.5t28.5 -77.5q0 -113 -116 -209q-108 -89 -287 -89q-176 0 -279 95t-103 253zM399 899.5q0 50.5 36 87t87 36.5t87 -36.5t36 -87t-36 -87t-87 -36.5t-87 36.5t-36 87z" />
<glyph unicode="&#xc0;" horiz-adv-x="1446" d="M6 5v42q0 20 18 20q73 0 110 20.5t59 79.5l487 1304q21 53 57 53q35 0 54 -54l455 -1298q23 -65 63 -85t106 -20q19 0 19 -20v-42l-5 -5q-179 5 -270 5l-288 -5l-4 5v42q0 20 18 20h62q113 0 113 58q0 14 -10 47l-75 217h-517q-41 0 -59 -9.5t-26 -31.5l-68 -181 q-17 -43 -17 -61q0 -25 30.5 -32t97.5 -7h41q19 0 19 -20v-42l-5 -5q-168 5 -259 5l-168 -6zM424 1787l176 106l280 -196q35 -26 35 -48q0 -34 -34 -34q-35 0 -99 27zM433 501q0 -22 60 -22h451l-182 518l-74 201l-70 -196l-181 -482q-4 -12 -4 -19z" />
<glyph unicode="&#xc1;" horiz-adv-x="1446" d="M6 5v42q0 20 18 20q73 0 110 20.5t59 79.5l487 1304q21 53 57 53q35 0 54 -54l455 -1298q23 -65 63 -85t106 -20q19 0 19 -20v-42l-5 -5q-179 5 -270 5l-288 -5l-4 5v42q0 20 18 20h62q113 0 113 58q0 14 -10 47l-75 217h-517q-41 0 -59 -9.5t-26 -31.5l-68 -181 q-17 -43 -17 -61q0 -25 30.5 -32t97.5 -7h41q19 0 19 -20v-42l-5 -5q-168 5 -259 5l-168 -6zM433 501q0 -22 60 -22h451l-182 518l-74 201l-70 -196l-181 -482q-4 -12 -4 -19zM605 1649q0 23 35 48l287 200l144 -121l-333 -134q-68 -27 -100 -27q-33 0 -33 34z" />
<glyph unicode="&#xc2;" horiz-adv-x="1446" d="M6 5v42q0 20 18 20q73 0 110 20.5t59 79.5l487 1304q21 53 57 53q35 0 54 -54l455 -1298q23 -65 63 -85t106 -20q19 0 19 -20v-42l-5 -5q-179 5 -270 5l-288 -5l-4 5v42q0 20 18 20h62q113 0 113 58q0 14 -10 47l-75 217h-517q-41 0 -59 -9.5t-26 -31.5l-68 -181 q-17 -43 -17 -61q0 -25 30.5 -32t97.5 -7h41q19 0 19 -20v-42l-5 -5q-168 5 -259 5l-168 -6zM433 501q0 -22 60 -22h451l-182 518l-74 201l-70 -196l-181 -482q-4 -12 -4 -19zM460 1644q104 79 230 218h100q88 -109 233 -218l-37 -47q-135 60 -246 142q-116 -85 -247 -142z " />
<glyph unicode="&#xc3;" horiz-adv-x="1446" d="M6 5v42q0 20 18 20q73 0 110 20.5t59 79.5l487 1304q21 53 57 53q35 0 54 -54l455 -1298q23 -65 63 -85t106 -20q19 0 19 -20v-42l-5 -5q-179 5 -270 5l-288 -5l-4 5v42q0 20 18 20h62q113 0 113 58q0 14 -10 47l-75 217h-517q-41 0 -59 -9.5t-26 -31.5l-68 -181 q-17 -43 -17 -61q0 -25 30.5 -32t97.5 -7h41q19 0 19 -20v-42l-5 -5q-168 5 -259 5l-168 -6zM433 501q0 -22 60 -22h451l-182 518l-74 201l-70 -196l-181 -482q-4 -12 -4 -19zM440 1627q24 105 67 155.5t116 50.5q75 0 167 -65q74 -52 121 -52q39 0 65 26t50 97l55 -15 q-43 -209 -201 -209q-52 0 -147 60q-82 52 -126 52t-70 -26t-43 -85z" />
<glyph unicode="&#xc4;" horiz-adv-x="1446" d="M6 5v42q0 20 18 20q73 0 110 20.5t59 79.5l487 1304q21 53 57 53q35 0 54 -54l455 -1298q23 -65 63 -85t106 -20q19 0 19 -20v-42l-5 -5q-179 5 -270 5l-288 -5l-4 5v42q0 20 18 20h62q113 0 113 58q0 14 -10 47l-75 217h-517q-41 0 -59 -9.5t-26 -31.5l-68 -181 q-17 -43 -17 -61q0 -25 30.5 -32t97.5 -7h41q19 0 19 -20v-42l-5 -5q-168 5 -259 5l-168 -6zM368 1591q0 43 31.5 74t74 31t74 -31t31.5 -74t-31.5 -74t-74 -31t-74 31t-31.5 74zM433 501q0 -22 60 -22h451l-182 518l-74 201l-70 -196l-181 -482q-4 -12 -4 -19zM883 1592 q0 43 31 74t74 31t74 -31t31 -74t-31 -74t-74 -31t-74 31t-31 74z" />
<glyph unicode="&#xc5;" horiz-adv-x="1609" d="M6 0v43q0 19 18 19h27q67 0 104 30.5t65 95.5l540 1266q3 6 7 15q-60 19 -97.5 69.5t-37.5 113.5q0 79 57.5 135.5t138.5 56.5t140 -56t59 -136q0 -61 -36 -110.5t-95 -70.5l7 -17l473 -1254q27 -71 66 -104.5t106 -33.5h26q8 0 15.5 -5t7.5 -14v-43l-8 -5q-177 5 -267 5 l-307 -5l-5 5v43q0 19 18 19h65q53 0 80.5 18t27.5 48q0 19 -8 38l-148 399h-487q-40 0 -57.5 -9.5t-27.5 -31.5l-149 -358q-10 -24 -10 -43q0 -61 107 -61h67q19 0 19 -19v-43l-4 -5q-230 5 -286 5l-207 -5zM540 677q0 -22 60 -22h412l-228 617l-239 -576q-5 -10 -5 -19z M705 1652q0 -51 35.5 -90.5t89 -39.5t89 39.5t35.5 90.5q0 53 -37 91.5t-88 38.5q-52 0 -88 -39t-36 -91z" />
<glyph unicode="&#xc6;" horiz-adv-x="2002" d="M6 0v44q0 18 22 18h52q51 0 78.5 20t60.5 81l617 1173q9 17 9 32q0 28 -23 44.5t-51 16.5h-73q-18 0 -18 16v47l5 4l407 -4h179h514q15 -177 49 -355l-68 -12q-19 60 -31 92t-34 73t-47 61.5t-64 35t-89 14.5h-233q-40 0 -62 -30t-22 -74v-457h238q56 0 80 24t36 78 l16 69q2 20 17 20h51q7 0 7 -11q-18 -132 -18 -220q0 -95 18 -221l-5 -8h-53q-17 0 -20 17l-13 71q-10 53 -35.5 77t-80.5 24h-238v-589q0 -81 84 -81h304q63 0 112 23.5t82.5 69t55 95.5t40.5 120l70 -12q-47 -221 -61 -386h-781l-299 -5l-5 5v41q0 21 19 21h61 q67 0 96.5 26.5t29.5 77.5v449h-413l-245 -457q-29 -55 -29 -70t16.5 -20.5t58.5 -5.5h67q14 0 14 -13v-49l-3 -5q-150 5 -240 5l-209 -5zM626 705h366v626q0 40 -3 52z" />
<glyph unicode="&#xc7;" horiz-adv-x="1490" d="M85 729q0 166 61.5 315t163.5 253t236.5 164.5t277.5 60.5q96 0 179.5 -15t130.5 -34t101 -36t96 -19q10 -144 51 -357l-70 -11q-116 387 -514 387q-58 0 -124 -23t-135.5 -76t-125.5 -127.5t-91.5 -189t-35.5 -248.5q0 -103 21 -203t64.5 -191t105 -160.5t150.5 -110 t193 -40.5q161 0 286.5 60.5t249.5 194.5l53 -34q-109 -143 -248 -224t-294 -92l-42 -102q27 7 60 7q71 0 117.5 -39t46.5 -105q0 -73 -69.5 -118t-177.5 -45q-83 0 -173 39l25 51q87 -32 132 -32q57 0 98 25.5t41 69.5q0 36 -27.5 59t-68.5 23q-56 0 -104 -16l-14 15 l77 168q-139 4 -255.5 50t-198 119t-138.5 169t-84 201.5t-27 216.5z" />
<glyph unicode="&#xc8;" horiz-adv-x="1318" d="M28 0v46q0 16 18 16h69q67 0 93.5 25.5t26.5 76.5v1159q0 56 -27 80t-93 24h-69q-18 0 -18 16v46l5 5l296 -5l179 3l441 2q15 -184 49 -359l-68 -12l-22 66q-7 23 -22 57.5t-27.5 53.5t-32 41.5t-42 33t-53 18.5t-67.5 8h-159q-43 0 -63.5 -17.5t-20.5 -58.5v-462h231 q57 0 80.5 24.5t35.5 78.5l16 69q2 19 17 19h51q8 0 8 -10q-18 -132 -18 -220q0 -95 18 -222l-6 -8h-53q-17 0 -19 17l-14 72q-10 53 -35.5 77t-80.5 24h-231v-620q0 -43 21 -59.5t63 -16.5h383q63 0 112.5 22.5t82.5 67.5t54.5 94.5t41.5 118.5l70 -11q-49 -224 -61 -382 h-681l-179 2l-296 -5zM390 1787l176 106l280 -196q35 -26 35 -48q0 -34 -33 -34q-36 0 -100 27z" />
<glyph unicode="&#xc9;" horiz-adv-x="1318" d="M28 0v46q0 16 18 16h69q67 0 93.5 25.5t26.5 76.5v1159q0 56 -27 80t-93 24h-69q-18 0 -18 16v46l5 5l296 -5l179 3l441 2q15 -184 49 -359l-68 -12l-22 66q-7 23 -22 57.5t-27.5 53.5t-32 41.5t-42 33t-53 18.5t-67.5 8h-159q-43 0 -63.5 -17.5t-20.5 -58.5v-462h231 q57 0 80.5 24.5t35.5 78.5l16 69q2 19 17 19h51q8 0 8 -10q-18 -132 -18 -220q0 -95 18 -222l-6 -8h-53q-17 0 -19 17l-14 72q-10 53 -35.5 77t-80.5 24h-231v-620q0 -43 21 -59.5t63 -16.5h383q63 0 112.5 22.5t82.5 67.5t54.5 94.5t41.5 118.5l70 -11q-49 -224 -61 -382 h-681l-179 2l-296 -5zM488 1651q0 24 35 49l287 200l145 -121l-333 -135q-68 -27 -100 -27q-34 0 -34 34z" />
<glyph unicode="&#xca;" horiz-adv-x="1318" d="M28 0v46q0 16 18 16h69q67 0 93.5 25.5t26.5 76.5v1159q0 56 -27 80t-93 24h-69q-18 0 -18 16v46l5 5l296 -5l179 3l441 2q15 -184 49 -359l-68 -12l-22 66q-7 23 -22 57.5t-27.5 53.5t-32 41.5t-42 33t-53 18.5t-67.5 8h-159q-43 0 -63.5 -17.5t-20.5 -58.5v-462h231 q57 0 80.5 24.5t35.5 78.5l16 69q2 19 17 19h51q8 0 8 -10q-18 -132 -18 -220q0 -95 18 -222l-6 -8h-53q-17 0 -19 17l-14 72q-10 53 -35.5 77t-80.5 24h-231v-620q0 -43 21 -59.5t63 -16.5h383q63 0 112.5 22.5t82.5 67.5t54.5 94.5t41.5 118.5l70 -11q-49 -224 -61 -382 h-681l-179 2l-296 -5zM405 1645q103 79 230 218h99q89 -109 233 -218l-36 -47q-135 59 -246 142q-117 -85 -248 -142z" />
<glyph unicode="&#xcb;" horiz-adv-x="1318" d="M28 0v46q0 16 18 16h69q67 0 93.5 25.5t26.5 76.5v1159q0 56 -27 80t-93 24h-69q-18 0 -18 16v46l5 5l296 -5l179 3l441 2q15 -184 49 -359l-68 -12l-22 66q-7 23 -22 57.5t-27.5 53.5t-32 41.5t-42 33t-53 18.5t-67.5 8h-159q-43 0 -63.5 -17.5t-20.5 -58.5v-462h231 q57 0 80.5 24.5t35.5 78.5l16 69q2 19 17 19h51q8 0 8 -10q-18 -132 -18 -220q0 -95 18 -222l-6 -8h-53q-17 0 -19 17l-14 72q-10 53 -35.5 77t-80.5 24h-231v-620q0 -43 21 -59.5t63 -16.5h383q63 0 112.5 22.5t82.5 67.5t54.5 94.5t41.5 118.5l70 -11q-49 -224 -61 -382 h-681l-179 2l-296 -5zM342 1736q0 43 31.5 74t74 31t74 -31t31.5 -74t-31.5 -74t-74 -31t-74 31t-31.5 74zM781 1737q0 43 31 74t74 31t74 -31t31 -74t-31 -74t-74 -31t-74 31t-31 74z" />
<glyph unicode="&#xcc;" horiz-adv-x="679" d="M40 0v43q0 19 18 19h61q69 0 97.5 25t28.5 76v1186q0 52 -8 65t-35 13h-34q-19 0 -19 19v43l5 5q90 -5 180 -5l179 5l5 -5v-43q0 -19 -19 -19h-29q-27 0 -32.5 -13t-5.5 -65v-1186q0 -55 29 -78t97 -23h61q19 0 19 -19v-43l-4 -5q-201 5 -292 5l-298 -5zM53 1787l176 106 l281 -196q35 -26 35 -48q0 -34 -34 -34q-35 0 -100 27z" />
<glyph unicode="&#xcd;" horiz-adv-x="679" d="M40 0v43q0 19 18 19h61q69 0 97.5 25t28.5 76v1186q0 52 -8 65t-35 13h-34q-19 0 -19 19v43l5 5q90 -5 180 -5l179 5l5 -5v-43q0 -19 -19 -19h-29q-27 0 -32.5 -13t-5.5 -65v-1186q0 -55 29 -78t97 -23h61q19 0 19 -19v-43l-4 -5q-201 5 -292 5l-298 -5zM164 1649 q0 23 35 48l287 200l145 -121l-334 -134q-68 -27 -99 -27q-34 0 -34 34z" />
<glyph unicode="&#xce;" horiz-adv-x="679" d="M40 0v43q0 19 18 19h61q69 0 97.5 25t28.5 76v1186q0 52 -8 65t-35 13h-34q-19 0 -19 19v43l5 5q90 -5 180 -5l179 5l5 -5v-43q0 -19 -19 -19h-29q-27 0 -32.5 -13t-5.5 -65v-1186q0 -55 29 -78t97 -23h61q19 0 19 -19v-43l-4 -5q-201 5 -292 5l-298 -5zM58 1645 q104 79 230 218h100q88 -109 232 -218l-36 -47q-135 59 -246 142q-117 -85 -248 -142z" />
<glyph unicode="&#xcf;" horiz-adv-x="679" d="M15 1732q0 43 31 74t74 31t74 -31t31 -74t-31 -74t-74 -31t-74 31t-31 74zM40 0v43q0 19 18 19h61q69 0 97.5 25t28.5 76v1186q0 52 -8 65t-35 13h-34q-19 0 -19 19v43l5 5q90 -5 180 -5l179 5l5 -5v-43q0 -19 -19 -19h-29q-27 0 -32.5 -13t-5.5 -65v-1186q0 -55 29 -78 t97 -23h61q19 0 19 -19v-43l-4 -5q-201 5 -292 5l-298 -5zM453 1733q0 43 31 74.5t74 31.5t74 -31.5t31 -74.5t-31 -74t-74 -31t-74 31t-31 74z" />
<glyph unicode="&#xd0;" horiz-adv-x="1613" d="M40 0v42q0 20 16 20h69q65 0 92.5 26t27.5 83v493h-205v91h205v568q0 64 -23.5 85t-96.5 21h-65q-20 0 -20 21v42l3 4l291 -4q75 0 190.5 2t189.5 2q219 0 403.5 -105.5t290.5 -286t106 -391.5q0 -164 -48 -292t-123.5 -206.5t-178.5 -129.5t-202.5 -70.5t-205.5 -19.5 q-128 0 -238 2.5t-184 2.5q-187 0 -291 -5zM432 166q0 -39 17 -57.5t69.5 -26t167.5 -7.5q104 0 190 15t167 55t136.5 104.5t89 168t33.5 239.5q0 111 -21.5 215.5t-72.5 205.5t-126.5 175t-192 119t-261.5 45q-49 0 -79.5 -2.5t-60 -10.5t-43 -27.5t-13.5 -48.5v-573h234 v-91h-234v-498z" />
<glyph unicode="&#xd1;" horiz-adv-x="1482" d="M20 0v42q0 9 10.5 14.5t20.5 5.5h61q64 0 94.5 41.5t30.5 95.5v1225q0 68 49 68q56 -3 91 -50q25 -31 223 -311l380 -535q182 -255 190 -255q15 0 15 88v858q0 58 -29 99.5t-95 41.5h-61q-10 0 -20 5t-10 15v42l11 5q172 -5 254 -5l257 5l4 -5v-42q0 -20 -19 -20h-61 q-65 0 -96 -40t-31 -101l-1 -1219q0 -68 -48 -68q-57 2 -92 50q-25 30 -222 310l-380 536q-182 254 -190 254q-16 0 -16 -88v-860q0 -58 31 -99t96 -41h61q19 0 19 -19v-43l-5 -5q-166 5 -256 5l-249 -5zM493 1627q25 105 67.5 155.5t115.5 50.5q75 0 167 -65 q75 -52 121 -52q39 0 65 26t50 97l56 -15q-43 -209 -202 -209q-52 0 -147 60q-82 52 -126 52t-70 -26t-43 -85z" />
<glyph unicode="&#xd2;" horiz-adv-x="1647" d="M85 742q0 225 96 406.5t265 284.5t378 103t378 -103t265 -284.5t96 -406.5q0 -137 -58.5 -274t-155.5 -243.5t-235.5 -173t-288.5 -66.5q-121 0 -235 43t-204 117t-159 169.5t-105.5 206.5t-36.5 221zM286 786q0 -128 36.5 -252.5t103.5 -226t171.5 -164t229.5 -62.5 q101 0 188 41t149.5 110.5t108 160t67.5 191t22 202.5q0 178 -66.5 329t-190 243.5t-279.5 92.5q-10 0 -30.5 -1.5t-76 -14.5t-106.5 -36.5t-113.5 -73t-107.5 -117t-75.5 -177t-30.5 -245.5zM525 1790l177 106l280 -195q35 -26 35 -49q0 -34 -34 -34q-35 0 -99 27z" />
<glyph unicode="&#xd3;" horiz-adv-x="1647" d="M85 742q0 225 96 406.5t265 284.5t378 103t378 -103t265 -284.5t96 -406.5q0 -137 -58.5 -274t-155.5 -243.5t-235.5 -173t-288.5 -66.5q-121 0 -235 43t-204 117t-159 169.5t-105.5 206.5t-36.5 221zM286 786q0 -128 36.5 -252.5t103.5 -226t171.5 -164t229.5 -62.5 q101 0 188 41t149.5 110.5t108 160t67.5 191t22 202.5q0 178 -66.5 329t-190 243.5t-279.5 92.5q-10 0 -30.5 -1.5t-76 -14.5t-106.5 -36.5t-113.5 -73t-107.5 -117t-75.5 -177t-30.5 -245.5zM573 1651q0 24 35 49l287 200l145 -121l-334 -135q-68 -27 -99 -27q-34 0 -34 34 z" />
<glyph unicode="&#xd4;" horiz-adv-x="1647" d="M85 742q0 225 96 406.5t265 284.5t378 103t378 -103t265 -284.5t96 -406.5q0 -137 -58.5 -274t-155.5 -243.5t-235.5 -173t-288.5 -66.5q-121 0 -235 43t-204 117t-159 169.5t-105.5 206.5t-36.5 221zM286 786q0 -128 36.5 -252.5t103.5 -226t171.5 -164t229.5 -62.5 q101 0 188 41t149.5 110.5t108 160t67.5 191t22 202.5q0 178 -66.5 329t-190 243.5t-279.5 92.5q-10 0 -30.5 -1.5t-76 -14.5t-106.5 -36.5t-113.5 -73t-107.5 -117t-75.5 -177t-30.5 -245.5zM557 1645q104 79 231 218h99q88 -109 233 -218l-36 -47q-136 59 -247 142 q-116 -85 -247 -142z" />
<glyph unicode="&#xd5;" horiz-adv-x="1647" d="M85 742q0 225 96 406.5t265 284.5t378 103t378 -103t265 -284.5t96 -406.5q0 -137 -58.5 -274t-155.5 -243.5t-235.5 -173t-288.5 -66.5q-121 0 -235 43t-204 117t-159 169.5t-105.5 206.5t-36.5 221zM286 786q0 -128 36.5 -252.5t103.5 -226t171.5 -164t229.5 -62.5 q101 0 188 41t149.5 110.5t108 160t67.5 191t22 202.5q0 178 -66.5 329t-190 243.5t-279.5 92.5q-10 0 -30.5 -1.5t-76 -14.5t-106.5 -36.5t-113.5 -73t-107.5 -117t-75.5 -177t-30.5 -245.5zM523 1627q25 105 68 155.5t115 50.5q76 0 167 -65q75 -52 121 -52q40 0 66 26 t50 97l55 -15q-43 -209 -201 -209q-52 0 -147 60q-83 52 -127 52t-70 -26t-43 -85z" />
<glyph unicode="&#xd6;" horiz-adv-x="1647" d="M85 742q0 225 96 406.5t265 284.5t378 103t378 -103t265 -284.5t96 -406.5q0 -137 -58.5 -274t-155.5 -243.5t-235.5 -173t-288.5 -66.5q-121 0 -235 43t-204 117t-159 169.5t-105.5 206.5t-36.5 221zM253 1592q0 43 31 74t74 31t74 -31t31 -74t-31 -74t-74 -31t-74 31 t-31 74zM286 786q0 -128 36.5 -252.5t103.5 -226t171.5 -164t229.5 -62.5q101 0 188 41t149.5 110.5t108 160t67.5 191t22 202.5q0 178 -66.5 329t-190 243.5t-279.5 92.5q-10 0 -30.5 -1.5t-76 -14.5t-106.5 -36.5t-113.5 -73t-107.5 -117t-75.5 -177t-30.5 -245.5z M1192 1585q0 43 31 74t74 31t74 -31t31 -74t-31 -74t-74 -31t-74 31t-31 74z" />
<glyph unicode="&#xd7;" horiz-adv-x="1220" d="M246 250l283 282l-283 284l82 81l282 -283l283 283l81 -80l-284 -285l284 -282l-81 -80l-283 282l-282 -282z" />
<glyph unicode="&#xd8;" horiz-adv-x="1617" d="M85 718q0 224 92.5 408.5t257.5 290t368 105.5q266 0 458 -151l147 180l67 -56l-148 -183q98 -102 151.5 -242t53.5 -308q0 -231 -88.5 -410t-254.5 -279.5t-383 -100.5q-257 0 -448 147l-172 -212l-66 61l170 211q-97 99 -151 236.5t-54 302.5zM297 757q0 -251 111 -434 l762 936q-145 184 -396 184q-69 0 -135 -24.5t-129 -78t-109.5 -131.5t-75 -195t-28.5 -257zM462 246q78 -93 180 -144t209 -51q203 0 336 180.5t133 484.5q0 284 -100 466z" />
<glyph unicode="&#xd9;" horiz-adv-x="1527" d="M0 1453v43l5 5q201 -5 291 -5l298 5l5 -5v-43q0 -19 -18 -19h-61q-69 0 -98 -25t-29 -76v-684q0 -75 2.5 -118t13 -107t37 -115t70.5 -95q118 -117 243 -117q16 0 33 2q111 13 184.5 53.5t168.5 132.5v1047q0 52 -24.5 77t-83.5 25h-47q-22 0 -22 19v43l6 5 q171 -5 268 -5l258 5l5 -5v-43q0 -19 -20 -19h-48q-60 0 -83 -25t-23 -77v-1050q0 -91 13 -116.5t43 -25.5q50 0 105 11l12 -63q-115 -18 -161 -30t-99 -37q-41 -19 -62 -19h-37l6 200h-6q-208 -200 -403 -200q-69 0 -135.5 13t-141.5 52t-130 99.5t-91.5 165t-36.5 240.5 v761q0 55 -29.5 78t-97.5 23h-61q-19 0 -19 19zM461 1789l176 106l281 -195q35 -26 35 -49q0 -34 -34 -34q-35 0 -100 27z" />
<glyph unicode="&#xda;" horiz-adv-x="1527" d="M0 1453v43l5 5q201 -5 291 -5l298 5l5 -5v-43q0 -19 -18 -19h-61q-69 0 -98 -25t-29 -76v-684q0 -75 2.5 -118t13 -107t37 -115t70.5 -95q118 -117 243 -117q16 0 33 2q111 13 184.5 53.5t168.5 132.5v1047q0 52 -24.5 77t-83.5 25h-47q-22 0 -22 19v43l6 5 q171 -5 268 -5l258 5l5 -5v-43q0 -19 -20 -19h-48q-60 0 -83 -25t-23 -77v-1050q0 -91 13 -116.5t43 -25.5q50 0 105 11l12 -63q-115 -18 -161 -30t-99 -37q-41 -19 -62 -19h-37l6 200h-6q-208 -200 -403 -200q-69 0 -135.5 13t-141.5 52t-130 99.5t-91.5 165t-36.5 240.5 v761q0 55 -29.5 78t-97.5 23h-61q-19 0 -19 19zM615 1649q0 23 35 48l287 200l144 -121l-333 -134q-68 -27 -99 -27q-34 0 -34 34z" />
<glyph unicode="&#xdb;" horiz-adv-x="1527" d="M0 1453v43l5 5q201 -5 291 -5l298 5l5 -5v-43q0 -19 -18 -19h-61q-69 0 -98 -25t-29 -76v-684q0 -75 2.5 -118t13 -107t37 -115t70.5 -95q118 -117 243 -117q16 0 33 2q111 13 184.5 53.5t168.5 132.5v1047q0 52 -24.5 77t-83.5 25h-47q-22 0 -22 19v43l6 5 q171 -5 268 -5l258 5l5 -5v-43q0 -19 -20 -19h-48q-60 0 -83 -25t-23 -77v-1050q0 -91 13 -116.5t43 -25.5q50 0 105 11l12 -63q-115 -18 -161 -30t-99 -37q-41 -19 -62 -19h-37l6 200h-6q-208 -200 -403 -200q-69 0 -135.5 13t-141.5 52t-130 99.5t-91.5 165t-36.5 240.5 v761q0 55 -29.5 78t-97.5 23h-61q-19 0 -19 19zM528 1645q104 79 230 218h100q88 -109 232 -218l-36 -47q-135 59 -246 142q-116 -85 -248 -142z" />
<glyph unicode="&#xdc;" horiz-adv-x="1530" d="M24 1449v43l4 4q177 -4 267 -4q46 0 211 4q14 0 14 -25v-22q0 -17 -18 -20q-66 -9 -88 -34t-22 -77v-700q0 -74 2.5 -117t13 -107t37 -115.5t70.5 -95.5q119 -116 276 -116q81 0 146 18.5t109 48.5t76.5 76.5t50 92.5t28 107.5t13.5 112.5t3 114v681q0 52 -25 76t-86 35 q-19 5 -19 20v26q0 9 7.5 15t12.5 6q127 -4 163 -4l233 4l4 -4v-43q0 -20 -57 -20q-127 0 -127 -106v-645q0 -131 -14.5 -232t-53.5 -193.5t-103 -152t-168 -94t-243 -34.5q-69 0 -135.5 13t-141.5 52t-130 99.5t-91.5 165t-36.5 239.5v782q0 33 -13.5 55.5t-38.5 33t-51 14 t-60 3.5q-19 0 -19 20zM537 1590q0 43 31 74t74 31t72.5 -30.5t29.5 -74.5t-29.5 -74.5t-72.5 -30.5t-74 31t-31 74zM871 1589q0 44 29.5 74.5t72.5 30.5t74 -31t31 -74t-31 -74t-74 -31t-72.5 30.5t-29.5 74.5z" />
<glyph unicode="&#xdd;" horiz-adv-x="1330" d="M0 1446v47l3 3q215 -4 246 -4l264 4l3 -3v-44q0 -20 -14 -20h-66q-33 0 -46 -6.5t-13 -22.5q0 -19 29 -68l323 -542l294 542q26 49 26 67t-11.5 24t-47.5 6h-68q-13 2 -13 17v46l3 4q183 -4 212 -4l203 4l3 -3v-45q0 -19 -21 -19h-50q-51 0 -80.5 -22t-59.5 -79 l-345 -650v-512q0 -54 29.5 -79t97.5 -25h61q19 0 19 -19v-43l-5 -5q-201 5 -291 5l-299 -5l-4 5v43q0 19 18 19h61q68 0 97.5 26.5t29.5 77.5v485l-394 677q-36 66 -76 91q-15 10 -66 10h-28q-24 4 -24 17zM510 1651q0 24 35 49l287 200l144 -121l-333 -135 q-68 -27 -99 -27q-34 0 -34 34z" />
<glyph unicode="&#xde;" horiz-adv-x="1211" d="M20 1449v43l5 4q201 -4 291 -4l299 4l4 -4v-43q0 -20 -18 -20h-61q-69 0 -97.5 -24t-28.5 -75v-129q113 5 208 5q123 0 216.5 -28t148 -69.5t89 -99.5t45.5 -109t11 -106.5t-16.5 -113t-56.5 -117.5t-99 -106t-155 -75t-214 -29q-131 0 -177 15v-202q0 -54 29 -79t97 -25 h61q19 0 19 -19v-43l-4 -5q-201 5 -292 5l-298 -5l-5 5v43q0 19 19 19h61q67 0 96.5 26.5t29.5 77.5v1164q0 53 -29.5 76t-96.5 23h-61q-20 0 -20 20zM414 435q36 -11 165 -11q53 0 101 9.5t96 35.5t82 66t55.5 107t21.5 152q0 81 -20 142.5t-51 98t-74 60t-84.5 32 t-86.5 8.5q-35 0 -102 -8t-103 -17v-675z" />
<glyph unicode="&#xdf;" horiz-adv-x="1238" d="M51 0v43q0 19 18 19h44q55 0 77 26t22 78v712q0 21 -5.5 28t-29.5 7h-101q-13 0 -13 14v20q0 17 13 31t40 14q96 0 96 112q0 110 31.5 199t80 145.5t111 95.5t122.5 55t118 16q166 0 254.5 -80t88.5 -177q0 -64 -20.5 -119.5t-64.5 -107t-86 -88.5t-115 -92v-5l80 -54 q32 -22 79.5 -58.5t78.5 -68t66.5 -75t56.5 -85.5t35 -96t14 -109q0 -184 -99 -306t-257 -122q-68 0 -118 19.5t-75.5 53.5t-36 71t-10.5 78q0 29 22.5 55t48.5 26q67 0 67 -69q0 -22 -10.5 -48.5t-10.5 -38.5q0 -25 11 -41t32.5 -22.5t38.5 -8.5t41 -2q58 0 106 85t48 232 q0 152 -94.5 293.5t-253.5 262.5v29q129 99 186 181t57 201q0 97 -45.5 154.5t-135.5 57.5q-58 0 -103 -20t-73.5 -59t-48 -85t-28.5 -109t-12.5 -118.5t-3.5 -125.5v-825q0 -62 27.5 -99.5t74.5 -37.5q19 0 19 -19v-43l-4 -5q-117 5 -207 5l-240 -5z" />
<glyph unicode="&#xe0;" horiz-adv-x="1045" d="M56 479q0 153 58 276t166.5 195.5t246.5 72.5q176 0 289 -100l35 57q28 43 50 43q29 0 29 -57v-689q0 -95 9 -122q5 -15 20 -24.5t31 -9.5q79 0 114 6l9 -64q-123 -22 -196.5 -42.5t-107.5 -48.5h-55l3 75q-93 -75 -241 -75q-96 0 -175 32t-131 84t-87.5 120t-51 135.5 t-15.5 135.5zM233 525q0 -100 22.5 -180.5t57.5 -130t81.5 -82.5t90 -46t87.5 -13q116 0 185 51v653q-102 167 -239 167q-135 0 -210 -116t-75 -303zM282 1478l6 25q67 54 150 54q21 0 34 -6l162 -290q15 -27 15 -55q0 -9 -10.5 -17t-23.5 -8q-18 0 -67 45z" />
<glyph unicode="&#xe1;" horiz-adv-x="1131" d="M56 479q0 153 58 276t166.5 195.5t246.5 72.5q176 0 289 -100l35 57q28 43 50 43q29 0 29 -57v-689q0 -95 9 -122q5 -15 20 -24.5t31 -9.5q79 0 114 6l9 -64q-123 -22 -196.5 -42.5t-107.5 -48.5h-55l3 75q-93 -75 -241 -75q-96 0 -175 32t-131 84t-87.5 120t-51 135.5 t-15.5 135.5zM233 525q0 -100 22.5 -180.5t57.5 -130t81.5 -82.5t90 -46t87.5 -13q116 0 185 51v653q-102 167 -239 167q-135 0 -210 -116t-75 -303zM427 1199q0 29 15 52l184 290q14 6 34 6q68 0 113 -43l15 -11l5 -25l-265 -252q-49 -45 -67 -45q-14 0 -24 8.5t-10 19.5z " />
<glyph unicode="&#xe2;" horiz-adv-x="1131" d="M56 479q0 153 58 276t166.5 195.5t246.5 72.5q176 0 289 -100l35 57q28 43 50 43q29 0 29 -57v-689q0 -95 9 -122q5 -15 20 -24.5t31 -9.5q79 0 114 6l9 -64q-123 -22 -196.5 -42.5t-107.5 -48.5h-55l3 75q-93 -75 -241 -75q-96 0 -175 32t-131 84t-87.5 120t-51 135.5 t-15.5 135.5zM232 1196q166 187 237 298h115q70 -115 234 -298l-47 -33q-169 124 -247 208q-98 -101 -246 -208zM233 525q0 -100 22.5 -180.5t57.5 -130t81.5 -82.5t90 -46t87.5 -13q116 0 185 51v653q-102 167 -239 167q-135 0 -210 -116t-75 -303z" />
<glyph unicode="&#xe3;" horiz-adv-x="1131" d="M56 479q0 153 58 276t166.5 195.5t246.5 72.5q176 0 289 -100l35 57q28 43 50 43q29 0 29 -57v-689q0 -95 9 -122q5 -15 20 -24.5t31 -9.5q79 0 114 6l9 -64q-123 -22 -196.5 -42.5t-107.5 -48.5h-55l3 75q-93 -75 -241 -75q-96 0 -175 32t-131 84t-87.5 120t-51 135.5 t-15.5 135.5zM215 1228q25 105 67.5 155.5t115.5 50.5q75 0 167 -64q75 -52 121 -52q39 0 65 26t50 96l56 -15q-43 -209 -202 -209q-52 0 -147 60q-82 52 -126 52t-70 -26t-43 -85zM233 525q0 -100 22.5 -180.5t57.5 -130t81.5 -82.5t90 -46t87.5 -13q116 0 185 51v653 q-102 167 -239 167q-135 0 -210 -116t-75 -303z" />
<glyph unicode="&#xe4;" horiz-adv-x="1131" d="M56 479q0 153 58 276t166.5 195.5t246.5 72.5q176 0 289 -100l35 57q28 43 50 43q29 0 29 -57v-689q0 -95 9 -122q5 -15 20 -24.5t31 -9.5q79 0 114 6l9 -64q-123 -22 -196.5 -42.5t-107.5 -48.5h-55l3 75q-93 -75 -241 -75q-96 0 -175 32t-131 84t-87.5 120t-51 135.5 t-15.5 135.5zM233 525q0 -100 22.5 -180.5t57.5 -130t81.5 -82.5t90 -46t87.5 -13q116 0 185 51v653q-102 167 -239 167q-135 0 -210 -116t-75 -303zM237 1324q0 43 31 74t74 31t74 -31t31 -74t-31 -74t-74 -31t-74 31t-31 74zM609 1324q0 43 31 74t74 31t74 -31t31 -74 t-31 -74t-74 -31t-74 31t-31 74z" />
<glyph unicode="&#xe5;" horiz-adv-x="1131" d="M56 479q0 153 58 276t166.5 195.5t246.5 72.5q176 0 289 -100l35 57q28 43 50 43q29 0 29 -57v-689q0 -95 9 -122q5 -15 20 -24.5t31 -9.5q79 0 114 6l9 -64q-123 -22 -196.5 -42.5t-107.5 -48.5h-55l3 75q-93 -75 -241 -75q-96 0 -175 32t-131 84t-87.5 120t-51 135.5 t-15.5 135.5zM233 525q0 -100 22.5 -180.5t57.5 -130t81.5 -82.5t90 -46t87.5 -13q116 0 185 51v653q-102 167 -239 167q-135 0 -210 -116t-75 -303zM328 1348q0 79 57.5 135.5t138.5 56.5t140 -56t59 -136q0 -78 -58 -135t-141 -57q-80 0 -138 56t-58 136zM401 1348 q0 -51 35.5 -90.5t89 -39.5t89 39.5t35.5 90.5q0 53 -36.5 91.5t-88.5 38.5t-88 -39t-36 -91z" />
<glyph unicode="&#xe6;" horiz-adv-x="1592" d="M90 241q0 159 148 237.5t452 98.5q-2 136 -20 208t-56 110q-58 58 -135 58q-74 0 -134.5 -28t-60.5 -77q0 -37 8 -48q7 -14 7 -42t-24.5 -51.5t-65.5 -23.5q-50 0 -72 31t-22 72q0 100 112 168.5t259 68.5q32 0 63.5 -4t82.5 -18.5t96.5 -50.5t76.5 -90 q57 78 143.5 120.5t186.5 42.5q93 0 167 -25t115.5 -62.5t62.5 -74.5t21 -70q0 -96 -55.5 -151.5t-193.5 -87.5t-394 -47q1 -181 93 -300t224 -119q91 0 152.5 31t116.5 97l39 -24q-52 -98 -141 -158t-200 -60q-226 0 -356 160q-50 -71 -139 -115.5t-184 -44.5 q-178 0 -275.5 74t-97.5 195zM258 252q0 -82 51 -132t158 -50q67 0 121 38.5t81 119.5q19 58 21 269q-209 -17 -320.5 -84.5t-111.5 -160.5zM861 586q253 14 358 56t105 143q0 59 -56.5 109t-135.5 50q-114 0 -185 -101t-86 -257z" />
<glyph unicode="&#xe7;" horiz-adv-x="933" d="M85 483q0 239 132 389.5t324 150.5q158 0 249 -69.5t91 -167.5q0 -48 -25 -74t-64 -26q-41 0 -69.5 20.5t-33.5 60.5q-3 38 -9.5 62t-22 54t-48 45.5t-80.5 15.5q-115 0 -190.5 -114t-75.5 -298q0 -199 94.5 -329t231.5 -130q141 0 259 170l40 -33q-73 -128 -158 -183 t-192 -55h-22l-35 -85q27 7 60 7q71 0 117.5 -39t46.5 -105q0 -73 -69.5 -118.5t-176.5 -45.5q-84 0 -173 40l25 51q87 -32 132 -32q56 0 97.5 25.5t41.5 69.5q0 36 -27.5 58.5t-68.5 22.5q-57 0 -104 -15l-15 14l74 161q-165 33 -260.5 168.5t-95.5 333.5z" />
<glyph unicode="&#xe8;" horiz-adv-x="1081" d="M79 461q0 127 39.5 235.5t104 178.5t144.5 109t164 39q100 0 173 -33t114.5 -90t62 -120.5t25.5 -137.5h126q18 0 18 -14v-47q0 -15 -17 -23t-37 -8h-130h-609q-3 -25 -3 -46q0 -173 101.5 -295.5t230.5 -122.5q93 0 159.5 31t129.5 99l46 -39q-68 -93 -169 -149 t-221 -56q-115 0 -204.5 40.5t-142 110t-79 155.5t-26.5 183zM264 641h425q34 0 34 31q0 77 -18 133t-48 85t-61.5 41.5t-66.5 12.5q-22 0 -45 -4t-59.5 -22.5t-66 -48t-56 -89t-38.5 -139.5zM295 1478l6 25q66 54 150 54q20 0 34 -6l161 -290q15 -27 15 -55q0 -9 -10 -17 t-24 -8q-18 0 -67 45z" />
<glyph unicode="&#xe9;" horiz-adv-x="1081" d="M79 461q0 127 39.5 235.5t104 178.5t144.5 109t164 39q100 0 173 -33t114.5 -90t62 -120.5t25.5 -137.5h126q18 0 18 -14v-47q0 -15 -17 -23t-37 -8h-130h-609q-3 -25 -3 -46q0 -173 101.5 -295.5t230.5 -122.5q93 0 159.5 31t129.5 99l46 -39q-68 -93 -169 -149 t-221 -56q-115 0 -204.5 40.5t-142 110t-79 155.5t-26.5 183zM264 641h425q34 0 34 31q0 77 -18 133t-48 85t-61.5 41.5t-66.5 12.5q-22 0 -45 -4t-59.5 -22.5t-66 -48t-56 -89t-38.5 -139.5zM425 1209q0 29 15 52l184 290q13 6 34 6q67 0 113 -43l14 -11l6 -25l-266 -252 q-48 -45 -66 -45q-14 0 -24 8.5t-10 19.5z" />
<glyph unicode="&#xea;" horiz-adv-x="1081" d="M79 461q0 127 39.5 235.5t104 178.5t144.5 109t164 39q100 0 173 -33t114.5 -90t62 -120.5t25.5 -137.5h126q18 0 18 -14v-47q0 -15 -17 -23t-37 -8h-130h-609q-3 -25 -3 -46q0 -173 101.5 -295.5t230.5 -122.5q93 0 159.5 31t129.5 99l46 -39q-68 -93 -169 -149 t-221 -56q-115 0 -204.5 40.5t-142 110t-79 155.5t-26.5 183zM245 1196q166 187 238 298h115q70 -115 234 -298l-48 -33q-168 124 -246 208q-98 -101 -246 -208zM264 641h425q34 0 34 31q0 77 -18 133t-48 85t-61.5 41.5t-66.5 12.5q-22 0 -45 -4t-59.5 -22.5t-66 -48 t-56 -89t-38.5 -139.5z" />
<glyph unicode="&#xeb;" horiz-adv-x="1081" d="M79 461q0 127 39.5 235.5t104 178.5t144.5 109t164 39q100 0 173 -33t114.5 -90t62 -120.5t25.5 -137.5h126q18 0 18 -14v-47q0 -15 -17 -23t-37 -8h-130h-609q-3 -25 -3 -46q0 -173 101.5 -295.5t230.5 -122.5q93 0 159.5 31t129.5 99l46 -39q-68 -93 -169 -149 t-221 -56q-115 0 -204.5 40.5t-142 110t-79 155.5t-26.5 183zM240 1324q0 43 31 74t74 31t74 -31t31 -74t-31 -74t-74 -31t-74 31t-31 74zM264 641h425q34 0 34 31q0 77 -18 133t-48 85t-61.5 41.5t-66.5 12.5q-22 0 -45 -4t-59.5 -22.5t-66 -48t-56 -89t-38.5 -139.5z M611 1324q0 43 31 74t74 31t74.5 -31t31.5 -74t-31.5 -74t-74.5 -31t-74 31t-31 74z" />
<glyph unicode="&#xec;" horiz-adv-x="612" d="M38 1478l6 25q67 54 150 54q21 0 34 -6l162 -290q15 -27 15 -55q0 -9 -10.5 -17t-23.5 -8q-18 0 -67 45zM67 937q105 18 146 30t94 36q41 20 58 20h35v-711q0 -113 16.5 -162t61.5 -49q84 0 165 63l42 -40q-136 -152 -288 -152q-84 0 -127 54t-43 176v540 q0 86 -12.5 114.5t-39.5 28.5q-41 0 -97 -12z" />
<glyph unicode="&#xed;" horiz-adv-x="692" d="M67 937q105 18 146 30t94 36q41 20 58 20h35v-711q0 -113 16.5 -162t61.5 -49q84 0 165 63l42 -40q-136 -152 -288 -152q-84 0 -127 54t-43 176v540q0 86 -12.5 114.5t-39.5 28.5q-41 0 -97 -12zM177 1209q0 29 15 52l184 290q14 6 34 6q68 0 113 -43l15 -11l6 -25 l-266 -252q-49 -45 -67 -45q-13 0 -23.5 8.5t-10.5 19.5z" />
<glyph unicode="&#xee;" horiz-adv-x="692" d="M-6 1196q166 187 238 298h115q70 -115 234 -298l-48 -33q-168 124 -246 208q-98 -101 -246 -208zM67 937q105 18 146 30t94 36q41 20 58 20h35v-711q0 -113 16.5 -162t61.5 -49q84 0 165 63l42 -40q-136 -152 -288 -152q-84 0 -127 54t-43 176v540q0 86 -12.5 114.5 t-39.5 28.5q-41 0 -97 -12z" />
<glyph unicode="&#xef;" horiz-adv-x="692" d="M1 1324q0 43 31 74t74 31t74 -31t31 -74t-31 -74t-74 -31t-74 31t-31 74zM67 937q105 18 146 30t94 36q41 20 58 20h35v-711q0 -113 16.5 -162t61.5 -49q84 0 165 63l42 -40q-136 -152 -288 -152q-84 0 -127 54t-43 176v540q0 86 -12.5 114.5t-39.5 28.5q-41 0 -97 -12z M373 1324q0 43 31 74t74 31t74 -31t31 -74t-31 -74t-74 -31t-74 31t-31 74z" />
<glyph unicode="&#xf0;" horiz-adv-x="1107" d="M79 480q0 116 31.5 210t81.5 154.5t114.5 102t126.5 59t123 17.5q99 0 178 -33q-65 157 -209 334l-253 -169l-51 74l245 163l-38 39q-86 85 -157 136l36 48q127 -67 246 -164l246 165l51 -75l-226 -151l43 -41q350 -355 350 -800q0 -142 -41 -254.5t-112 -181.5 t-159.5 -105t-188.5 -36q-83 0 -155.5 30t-123.5 80t-87 115.5t-53.5 137.5t-17.5 145zM259 521q0 -196 86.5 -327.5t209.5 -131.5q36 0 70.5 11t73 41.5t66 79t46 132t18.5 190.5q0 161 -41 316q-41 51 -103 80.5t-134 29.5q-66 0 -119 -27t-85 -70t-52 -100.5t-28 -111.5 t-8 -112z" />
<glyph unicode="&#xf1;" horiz-adv-x="1192" d="M42 933q88 17 135 27.5t97 28t75 36.5h52l-7 -172h7q159 172 326 172q82 0 141.5 -26t90.5 -72.5t44.5 -99t13.5 -116.5v-528q0 -62 21 -89t81 -27q16 0 38 2l7 -3v-60l-7 -6q-156 5 -230 5l-85 -5l2 184v494q0 59 -12 103.5t-30 70.5t-43 42.5t-47 21.5t-44 5 q-76 0 -150 -55q-80 -60 -117 -104v-573q0 -68 18 -95t79 -27q31 0 47 2l4 -6v-56l-4 -7q-164 5 -229 5l-91 -5l3 182v546q0 88 -11.5 120.5t-46.5 32.5q-54 0 -119 -11zM330 1228q25 105 68 155.5t115 50.5q76 0 167 -64q75 -52 121 -52q40 0 66 26t49 96l56 -15 q-43 -209 -201 -209q-52 0 -147 60q-83 52 -127 52t-70 -26t-43 -85z" />
<glyph unicode="&#xf2;" horiz-adv-x="1172" d="M79 513q0 137 64 254.5t181.5 189t261.5 71.5q125 0 224 -41.5t160 -113.5t92.5 -163.5t31.5 -196.5q0 -231 -138.5 -383.5t-369.5 -152.5q-226 0 -366.5 151t-140.5 385zM252 513q0 -185 95.5 -314t238.5 -129q160 0 247.5 121.5t87.5 321.5q0 184 -87 303.5t-248 119.5 q-150 0 -242 -121t-92 -302zM364 1478l6 25q66 54 150 54q20 0 34 -6l161 -290q15 -27 15 -55q0 -9 -10 -17t-24 -8q-18 0 -67 45z" />
<glyph unicode="&#xf3;" horiz-adv-x="1172" d="M79 513q0 137 64 254.5t181.5 189t261.5 71.5q125 0 224 -41.5t160 -113.5t92.5 -163.5t31.5 -196.5q0 -231 -138.5 -383.5t-369.5 -152.5q-226 0 -366.5 151t-140.5 385zM252 513q0 -185 95.5 -314t238.5 -129q160 0 247.5 121.5t87.5 321.5q0 184 -87 303.5t-248 119.5 q-150 0 -242 -121t-92 -302zM460 1209q0 29 15 52l184 290q13 6 34 6q67 0 113 -43l14 -11l6 -25l-266 -252q-48 -45 -66 -45q-14 0 -24 8.5t-10 19.5z" />
<glyph unicode="&#xf4;" horiz-adv-x="1172" d="M79 513q0 137 64 254.5t181.5 189t261.5 71.5q125 0 224 -41.5t160 -113.5t92.5 -163.5t31.5 -196.5q0 -231 -138.5 -383.5t-369.5 -152.5q-226 0 -366.5 151t-140.5 385zM252 513q0 -185 95.5 -314t238.5 -129q160 0 247.5 121.5t87.5 321.5q0 184 -87 303.5t-248 119.5 q-150 0 -242 -121t-92 -302zM295 1196q166 187 237 298h115q71 -115 234 -298l-47 -33q-168 124 -246 208q-99 -101 -247 -208z" />
<glyph unicode="&#xf5;" horiz-adv-x="1172" d="M79 513q0 137 64 254.5t181.5 189t261.5 71.5q125 0 224 -41.5t160 -113.5t92.5 -163.5t31.5 -196.5q0 -231 -138.5 -383.5t-369.5 -152.5q-226 0 -366.5 151t-140.5 385zM252 513q0 -185 95.5 -314t238.5 -129q160 0 247.5 121.5t87.5 321.5q0 184 -87 303.5t-248 119.5 q-150 0 -242 -121t-92 -302zM264 1228q25 105 68 155.5t115 50.5q76 0 168 -64q74 -52 121 -52q39 0 65 26t50 96l55 -15q-43 -209 -201 -209q-52 0 -147 60q-82 52 -126 52t-70 -26t-43 -85z" />
<glyph unicode="&#xf6;" horiz-adv-x="1172" d="M79 513q0 137 64 254.5t181.5 189t261.5 71.5q125 0 224 -41.5t160 -113.5t92.5 -163.5t31.5 -196.5q0 -231 -138.5 -383.5t-369.5 -152.5q-226 0 -366.5 151t-140.5 385zM252 513q0 -185 95.5 -314t238.5 -129q160 0 247.5 121.5t87.5 321.5q0 184 -87 303.5t-248 119.5 q-150 0 -242 -121t-92 -302zM301 1324q0 43 31 74t74 31t74 -31t31 -74t-31 -74t-74 -31t-74 31t-31 74zM672 1324q0 43 31 74t74 31t74.5 -31t31.5 -74t-31.5 -74t-74.5 -31t-74 31t-31 74z" />
<glyph unicode="&#xf7;" horiz-adv-x="1220" d="M153 480v114h915v-114h-915zM511 222q0 42 30.5 72.5t73 30.5t73 -30.5t30.5 -72.5t-30.5 -72.5t-73 -30.5t-73 30.5t-30.5 72.5zM511 843.5q0 42.5 30.5 73t73 30.5t73 -30.5t30.5 -73t-30.5 -73t-73 -30.5t-73 30.5t-30.5 73z" />
<glyph unicode="&#xf8;" horiz-adv-x="1110" d="M79 475q0 159 55 282t164.5 194.5t258.5 71.5q176 0 296 -99l104 127l72 -54l-113 -138q58 -74 87 -169.5t29 -193.5q0 -71 -18 -143.5t-56.5 -141.5t-93.5 -122t-135 -85t-175 -32q-165 0 -286 96l-110 -134l-70 61l113 137q-60 71 -91 161t-31 182zM262 528 q0 -129 56 -255l442 539q-83 134 -227 134q-66 0 -119.5 -37t-85.5 -97.5t-49 -133t-17 -150.5zM365 186q92 -132 227 -132q35 0 67.5 8.5t68 33.5t61.5 64t43 106.5t17 154.5q0 177 -44 301z" />
<glyph unicode="&#xf9;" horiz-adv-x="1221" d="M45 954v43l5 4q158 -4 248 -4l229 4l4 -4v-43q0 -19 -18 -19h-33q-55 0 -77 -25t-22 -77v-506q0 -129 31 -184t118 -55q80 0 152 38.5t156 137.5v569q0 52 -22.5 77t-76.5 25h-33q-19 0 -19 19v43l5 4q146 -4 237 -4l239 4l5 -4v-43q0 -19 -18 -19h-44q-56 0 -78 -25 t-22 -77v-576q0 -87 12.5 -115t39.5 -28q41 0 96 11l13 -63q-166 -28 -239 -67q-38 -19 -60 -19h-35l7 206h-7q-102 -121 -190 -163.5t-187 -42.5q-61 0 -106 19t-73 50.5t-45 79.5t-23 99.5t-6 117.5v491q0 52 -22.5 77t-77.5 25h-44q-19 0 -19 19zM316 1478l6 25 q67 54 150 54q21 0 34 -6l162 -290q15 -27 15 -55q0 -9 -10.5 -17t-23.5 -8q-18 0 -67 45z" />
<glyph unicode="&#xfa;" horiz-adv-x="1221" d="M45 954v43l5 4q158 -4 248 -4l229 4l4 -4v-43q0 -19 -18 -19h-33q-55 0 -77 -25t-22 -77v-506q0 -129 31 -184t118 -55q80 0 152 38.5t156 137.5v569q0 52 -22.5 77t-76.5 25h-33q-19 0 -19 19v43l5 4q146 -4 237 -4l239 4l5 -4v-43q0 -19 -18 -19h-44q-56 0 -78 -25 t-22 -77v-576q0 -87 12.5 -115t39.5 -28q41 0 96 11l13 -63q-166 -28 -239 -67q-38 -19 -60 -19h-35l7 206h-7q-102 -121 -190 -163.5t-187 -42.5q-61 0 -106 19t-73 50.5t-45 79.5t-23 99.5t-6 117.5v491q0 52 -22.5 77t-77.5 25h-44q-19 0 -19 19zM488 1209q0 29 15 52 l184 290q14 6 34 6q68 0 113 -43l15 -11l5 -25l-265 -252q-49 -45 -67 -45q-14 0 -24 8.5t-10 19.5z" />
<glyph unicode="&#xfb;" horiz-adv-x="1221" d="M45 954v43l5 4q158 -4 248 -4l229 4l4 -4v-43q0 -19 -18 -19h-33q-55 0 -77 -25t-22 -77v-506q0 -129 31 -184t118 -55q80 0 152 38.5t156 137.5v569q0 52 -22.5 77t-76.5 25h-33q-19 0 -19 19v43l5 4q146 -4 237 -4l239 4l5 -4v-43q0 -19 -18 -19h-44q-56 0 -78 -25 t-22 -77v-576q0 -87 12.5 -115t39.5 -28q41 0 96 11l13 -63q-166 -28 -239 -67q-38 -19 -60 -19h-35l7 206h-7q-102 -121 -190 -163.5t-187 -42.5q-61 0 -106 19t-73 50.5t-45 79.5t-23 99.5t-6 117.5v491q0 52 -22.5 77t-77.5 25h-44q-19 0 -19 19zM320 1196 q166 187 237 298h115q70 -115 234 -298l-47 -33q-169 124 -247 208q-98 -101 -246 -208z" />
<glyph unicode="&#xfc;" horiz-adv-x="1221" d="M45 954v43l5 4q158 -4 248 -4l229 4l4 -4v-43q0 -19 -18 -19h-33q-55 0 -77 -25t-22 -77v-506q0 -129 31 -184t118 -55q80 0 152 38.5t156 137.5v569q0 52 -22.5 77t-76.5 25h-33q-19 0 -19 19v43l5 4q146 -4 237 -4l239 4l5 -4v-43q0 -19 -18 -19h-44q-56 0 -78 -25 t-22 -77v-576q0 -87 12.5 -115t39.5 -28q41 0 96 11l13 -63q-166 -28 -239 -67q-38 -19 -60 -19h-35l7 206h-7q-102 -121 -190 -163.5t-187 -42.5q-61 0 -106 19t-73 50.5t-45 79.5t-23 99.5t-6 117.5v491q0 52 -22.5 77t-77.5 25h-44q-19 0 -19 19zM296 1324q0 43 31 74 t74 31t74 -31t31 -74t-31 -74t-74 -31t-74 31t-31 74zM668 1324q0 43 31 74t74 31t74 -31t31 -74t-31 -74t-74 -31t-74 31t-31 74z" />
<glyph unicode="&#xfd;" horiz-adv-x="1175" d="M25 933v43l4 5q159 -5 249 -5l240 5l4 -5v-43q0 -19 -18 -19h-44q-55 0 -77.5 -25t-22.5 -77v-516q0 -137 40 -184.5t140 -47.5q106 0 278 170v578q0 52 -22 77t-77 25h-44q-20 0 -20 19v43l5 5q158 -5 249 -5l239 5l5 -5v-43q0 -19 -18 -19h-45q-55 0 -77 -25t-22 -77 v-812q0 -232 -31.5 -347.5t-126.5 -210.5q-89 -89 -186 -89q-76 0 -145.5 34t-69.5 83q0 42 20.5 65.5t52.5 23.5q37 0 61.5 -30t35.5 -71q9 -38 36 -38q81 0 129.5 119.5t55.5 356.5l-5 251q-191 -191 -381 -191q-249 0 -249 366v490q0 52 -23 77t-77 25h-44q-19 0 -19 19z M529 1209q0 29 15 52l184 290q13 6 34 6q67 0 113 -43l14 -11l6 -25l-266 -252q-48 -45 -66 -45q-14 0 -24 8.5t-10 19.5z" />
<glyph unicode="&#xfe;" horiz-adv-x="1148" d="M38 -487q0 19 18 19h45q55 0 77 25t22 77v1691q0 97 -16.5 133t-52.5 36q-3 0 -35 -4t-40 -4q-12 0 -12 11l-4 59q44 0 128.5 14t153.5 45h51v-701l-3 -77q23 36 70 83q102 103 243 103q108 0 196.5 -69t135.5 -178t47 -232q0 -275 -163 -438q-134 -134 -313 -134 q-122 0 -213 51v-389q0 -52 22.5 -77t76.5 -25h44q20 0 20 -19v-43l-5 -4q-158 4 -249 4l-239 -4l-5 4v43zM373 150q82 -98 200 -98q88 0 151.5 38t96 103t46.5 135.5t14 152.5q0 255 -125 380q-55 55 -134 55q-66 0 -139.5 -51t-109.5 -137v-578z" />
<glyph unicode="&#xff;" horiz-adv-x="1175" d="M25 933v43l4 5q159 -5 249 -5l240 5l4 -5v-43q0 -19 -18 -19h-44q-55 0 -77.5 -25t-22.5 -77v-516q0 -137 40 -184.5t140 -47.5q106 0 278 170v578q0 52 -22 77t-77 25h-44q-20 0 -20 19v43l5 5q158 -5 249 -5l239 5l5 -5v-43q0 -19 -18 -19h-45q-55 0 -77 -25t-22 -77 v-812q0 -232 -31.5 -347.5t-126.5 -210.5q-89 -89 -186 -89q-76 0 -145.5 34t-69.5 83q0 42 20.5 65.5t52.5 23.5q37 0 61.5 -30t35.5 -71q9 -38 36 -38q81 0 129.5 119.5t55.5 356.5l-5 251q-191 -191 -381 -191q-249 0 -249 366v490q0 52 -23 77t-77 25h-44q-19 0 -19 19z M314 1324q0 43 31 74t74 31t74 -31t31 -74t-31 -74t-74 -31t-74 31t-31 74zM686 1324q0 43 31 74t74 31t74 -31t31 -74t-31 -74t-74 -31t-74 31t-31 74z" />
<glyph unicode="&#x152;" horiz-adv-x="1965" d="M96 737q0 211 74 380.5t226 274t360 104.5q162 -4 264 -4h180h596l32 -321l-62 -7q-14 87 -73 162t-142 75h-354q-43 0 -63.5 -17t-20.5 -57v-481h244q57 0 80.5 24.5t36.5 78.5l15 69q3 19 17 19h51q8 0 8 -10q-1 -12 -9.5 -93t-8.5 -127q0 -51 18 -222l-6 -8h-53 q-17 0 -19 17l-13 72q-11 53 -36.5 77t-80.5 24h-244v-601q0 -43 21 -59.5t63 -16.5h362q107 0 165 76t89 215l61 -10l-59 -371h-796l-236 -5q-212 0 -370 99t-237.5 266t-79.5 377zM308 757q0 -173 40 -307.5t107 -214.5t149 -120t175 -40h28q68 0 94 20.5t26 70.5v1162 q0 53 -25.5 70t-94.5 17h-80q-70 0 -130 -20.5t-114 -69t-92 -123t-60.5 -188t-22.5 -257.5z" />
<glyph unicode="&#x153;" horiz-adv-x="1795" d="M79 477q0 131 39 236.5t107 172.5t154.5 102t183.5 35q80 0 145 -17.5t110.5 -50.5t77 -67t58.5 -80q63 94 159 154.5t208 60.5q195 0 292 -129t97 -343h-667q-2 -21 -2 -47q0 -110 30 -195.5t77.5 -133t98.5 -71.5t102 -24q71 0 160.5 33.5t140.5 87.5l38 -28l-37 -49 q-13 -16 -49.5 -50t-70.5 -52.5t-90 -34t-118 -15.5q-257 0 -383 211q-64 -96 -166.5 -153.5t-220.5 -57.5q-208 0 -341 144.5t-133 360.5zM263 560q0 -133 34.5 -247t110 -190.5t177.5 -76.5q129 0 212 135q58 96 58 282q0 205 -69 323q-96 161 -227 161q-157 0 -226 -116 q-70 -121 -70 -271zM1050 642h487q-1 42 -11.5 88t-33 97t-68 84t-108.5 33q-56 0 -103 -28.5t-75 -67t-49 -84.5t-29 -75.5t-10 -46.5z" />
<glyph unicode="&#x178;" horiz-adv-x="1330" d="M0 1446v47l3 3q215 -4 246 -4l264 4l3 -3v-44q0 -20 -14 -20h-66q-33 0 -46 -6.5t-13 -22.5q0 -19 29 -68l323 -542l294 542q26 49 26 67t-11.5 24t-47.5 6h-68q-13 2 -13 17v46l3 4q183 -4 212 -4l203 4l3 -3v-45q0 -19 -21 -19h-50q-51 0 -80.5 -22t-59.5 -79 l-345 -650v-512q0 -54 29.5 -79t97.5 -25h61q19 0 19 -19v-43l-5 -5q-201 5 -291 5l-299 -5l-4 5v43q0 19 18 19h61q68 0 97.5 26.5t29.5 77.5v485l-394 677q-36 66 -76 91q-15 10 -66 10h-28q-24 4 -24 17zM417 1737q0 43 31 74t74 31t74 -31t31 -74t-31 -74t-74 -31 t-74 31t-31 74zM789 1737q0 43 31 74t74 31t74 -31t31 -74t-31 -74t-74 -31t-74 31t-31 74z" />
<glyph unicode="&#x2c6;" horiz-adv-x="807" d="M118 1248q166 187 237 298h115q70 -115 234 -298l-47 -33q-169 124 -247 208q-98 -101 -246 -208z" />
<glyph unicode="&#x2dc;" horiz-adv-x="677" d="M12 1340q25 105 68 155.5t115 50.5q76 0 168 -65q74 -52 121 -52q39 0 65 26t50 96l55 -14q-43 -209 -201 -209q-52 0 -147 60q-82 52 -126 52t-70 -26t-43 -85z" />
<glyph unicode="&#x2013;" horiz-adv-x="1237" d="M92 551v113h1054v-113h-1054z" />
<glyph unicode="&#x2014;" horiz-adv-x="1717" d="M68 551v113h1582v-113h-1582z" />
<glyph unicode="&#x2018;" horiz-adv-x="620" d="M168 1402q0 114 71 178.5t184 85.5l12 -59q-85 -20 -131 -63t-46 -84q0 -26 13 -40.5t28.5 -20t41.5 -8.5q103 -17 103 -101q0 -49 -35 -83t-89 -34q-68 0 -110 62.5t-42 166.5z" />
<glyph unicode="&#x2019;" horiz-adv-x="620" d="M176 1497q0 50 35 84t90 34q67 0 109 -63t42 -167q0 -114 -70.5 -178.5t-183.5 -84.5l-13 59q85 20 131.5 63t46.5 84q0 26 -13 40.5t-29 19.5t-42 9q-103 17 -103 100z" />
<glyph unicode="&#x201a;" horiz-adv-x="620" d="M175 102q0 49 35 83t89 34q68 0 110 -62.5t42 -166.5q0 -114 -70.5 -178.5t-183.5 -84.5l-13 58q85 21 131.5 64t46.5 83q0 26 -13 41t-29 20t-42 8q-103 17 -103 101z" />
<glyph unicode="&#x201c;" horiz-adv-x="870" d="M112 1405q0 114 70.5 178.5t183.5 84.5l13 -59q-85 -20 -131.5 -63t-46.5 -84q0 -26 13 -40.5t29 -19.5t42 -9q103 -17 103 -100q0 -50 -35 -84t-90 -34q-68 0 -109.5 63t-41.5 167zM475 1405q0 114 70.5 178.5t183.5 84.5l12 -59q-84 -20 -130.5 -63t-46.5 -84 q0 -26 13 -40.5t29 -19.5t41 -9q103 -17 103 -100q0 -50 -35 -84t-89 -34q-68 0 -109.5 63t-41.5 167z" />
<glyph unicode="&#x201d;" horiz-adv-x="870" d="M120 1497q0 50 35 84t89 34q68 0 110 -63t42 -167q0 -114 -71 -178.5t-184 -84.5l-12 59q85 20 131 63t46 84q0 26 -13 40.5t-28.5 19.5t-41.5 9q-103 17 -103 100zM483 1497q0 50 35 84t89 34q68 0 109.5 -63t41.5 -167q0 -114 -70.5 -178.5t-183.5 -84.5l-12 59 q84 20 130.5 63t46.5 84q0 26 -13 40.5t-29 19.5t-42 9q-102 17 -102 100z" />
<glyph unicode="&#x201e;" horiz-adv-x="870" d="M120 99q0 50 35 84t89 34q68 0 110 -62.5t42 -166.5q0 -115 -71 -179t-184 -85l-12 59q85 20 131 63t46 84q0 26 -13 40.5t-28.5 19.5t-41.5 9q-103 17 -103 100zM483 99q0 50 35 84t89 34q68 0 109.5 -62.5t41.5 -166.5q0 -115 -70.5 -179t-183.5 -85l-12 59 q84 20 130.5 63t46.5 84q0 26 -13 40.5t-29 19.5t-42 9q-102 17 -102 100z" />
<glyph unicode="&#x2022;" horiz-adv-x="812" d="M113 542q0 117 89.5 203t203.5 86q117 0 205 -86t88 -209q0 -115 -82.5 -203.5t-210.5 -88.5q-121 0 -207 87t-86 211z" />
<glyph unicode="&#x2026;" horiz-adv-x="1733" d="M131 95q0 51 36 87t87 36t87 -36t36 -87t-36 -87t-87 -36t-87 36t-36 87zM744 95q0 51 36 87t87 36t87 -36t36 -87t-36 -87t-87 -36t-87 36t-36 87zM1356 95q0 51 36 87t87 36t87 -36t36 -87t-36 -87t-87 -36t-87 36t-36 87z" />
<glyph unicode="&#x2039;" horiz-adv-x="823" d="M158 454v90q248 171 508 450v-124q-162 -232 -322 -372q154 -127 322 -370v-125q-280 324 -508 451z" />
<glyph unicode="&#x203a;" horiz-adv-x="823" d="M158 1v124q162 232 322 372q-155 128 -322 371v124q279 -323 508 -451v-89q-248 -172 -508 -451z" />
<glyph unicode="&#x20ac;" d="M0 508v21l45 59h86q-1 24 -1 49q0 34 2 68h-99l2 23l44 56h60q31 258 163.5 406t330.5 148q64 0 157.5 -17.5t132.5 -17.5q5 -118 47 -338l-71 -10q-15 64 -35 113.5t-51 94.5t-78 69.5t-107 24.5q-87 0 -153 -64t-102.5 -168t-48.5 -241h511l-42 -79h-473q-1 -20 -1 -42 q0 -39 1 -75h435l-43 -80h-388q20 -224 99 -331t221 -107q35 0 65 9.5t52.5 22.5t43.5 39.5t34 47t29.5 58t24.5 60t22 65.5l70 -15q-66 -232 -87 -350q-23 0 -116.5 -17.5t-159.5 -17.5q-204 0 -331 143t-154 393h-137z" />
<glyph unicode="&#x2122;" horiz-adv-x="1841" d="M29 1345l44 209l56 -19q-4 -25 -7 -26h540q-3 1 -7 26l57 18l44 -211l-53 -12q-19 77 -36 98t-56 21h-100q-19 0 -26 -10.5t-7 -38.5v-611q0 -56 70 -56h34q10 0 10 -12v-29l-2 -3q-146 3 -191 3l-191 -3l-2 3v29q0 12 11 12h34q37 0 53.5 12.5t16.5 43.5v614 q0 26 -7.5 36t-25.5 10h-116q-39 0 -56 -21t-36 -98zM773 692v19q0 16 41 16h32q18 0 26 69l47 616v6v6q0 38 -21 38h-38q-38 4 -38 14v19l12 14h206l257 -613l249 613h191l7 -13v-19q-2 -15 -41 -15h-35q-20 0 -20 -37v-13l53 -615q4 -35 9.5 -52.5t18.5 -17.5h33 q43 0 43 -16v-19l-13 -13q-102 4 -151 4l-154 -4l-13 13v19q0 16 40 16h32q15 0 15 53q0 11 -2 16l-38 455l-229 -561q-11 -24 -38 -24t-38 24l-232 550q-20 -293 -33 -446v-14q0 -53 17 -53h33q40 0 40 -16v-18l-7 -14q-89 4 -140 4l-110 -4z" />
<glyph unicode="&#xe000;" horiz-adv-x="1000" d="M0 1000h1000v-1000h-1000v1000z" />
<glyph unicode="&#xfb01;" horiz-adv-x="1256" d="M-46 -269q0 29 19.5 53t50.5 24q54 0 78 -48q4 -9 7 -29.5t11 -31.5t29 -11q22 0 36 33.5t19.5 101t7.5 126t2 150.5v34v33v738h-160q-12 0 -12 14v31q0 17 13 31t40 14h119v34q0 133 26.5 236.5t69.5 168t101 107t116 59t120 16.5q112 0 206 -62q69 -47 116 -109.5 t47 -123.5q0 -35 -28.5 -62t-63.5 -27q-54 0 -85.5 42.5t-52.5 138.5q-26 126 -167 126q-27 0 -53.5 -8t-60.5 -35t-59 -70t-42.5 -120.5t-17.5 -179.5v-131h438q47 0 112 14.5t74 14.5h35v-857q0 -52 22.5 -77t77.5 -25h44q19 0 19 -19v-43l-5 -4q-158 4 -248 4l-240 -4 l-4 4v43q0 19 18 19h44q55 0 77 25t22 77v576q0 102 -11 132t-55 30h-420v-714q0 -303 -66 -445.5t-196 -142.5q-86 0 -128 43t-42 86z" />
<glyph unicode="&#xfb02;" horiz-adv-x="1219" d="M-46 -269q0 29 19.5 53t50.5 24q54 0 78 -48q4 -9 7 -29.5t11 -31.5t29 -11q22 0 36 33.5t19.5 101t7.5 126t2 150.5v34v33v738h-160q-12 0 -12 14v31q0 17 13 31t40 14h119v92q0 129 43.5 234t111.5 167t146 95t154 33q113 0 192 -53q17 5 47.5 25t48.5 28h51v-1449 q0 -52 22.5 -77t76.5 -25h55q19 0 19 -19v-43l-5 -4q-168 4 -258 4l-216 -4l-5 4v43q0 19 18 19h21q55 0 77 25t22 77v1166q0 21 -1 30q-43 13 -66 62q-45 112 -143 112q-27 0 -54 -8t-61.5 -34.5t-60.5 -69t-44.5 -120t-18.5 -179.5v-131h256q18 0 18 -13v-46 q0 -15 -17 -23t-37 -8h-220v-714q0 -303 -66 -445.5t-196 -142.5q-86 0 -128 43t-42 86z" />
<glyph unicode="&#xfb03;" horiz-adv-x="1871" d="M-46 -269q0 29 19.5 53t50.5 24q54 0 78 -48q4 -9 7 -29.5t11 -31.5t29 -11q22 0 36 33.5t19.5 101t7.5 126t2 150.5v34v33v738h-160q-12 0 -12 14v31q0 17 13 31t40 14h119q0 215 50 342t168 196q75 44 165 44q126 0 207 -41t108 -93q53 68 148.5 120.5t201.5 52.5 q112 0 206 -62q69 -47 116 -109.5t47 -123.5q0 -35 -28.5 -62t-63.5 -27q-54 0 -85.5 42.5t-52.5 138.5q-26 126 -167 126q-27 0 -53.5 -8t-60.5 -35t-59 -70t-42.5 -120.5t-17.5 -179.5v-131h437q48 0 113 16.5t74 16.5h35v-861q0 -52 22.5 -77t76.5 -25h44q20 0 20 -19 v-43l-5 -4q-158 4 -248 4l-240 -4l-5 4v43q0 19 19 19h44q55 0 77 25t22 77v619q0 73 -12 96t-55 23h-419v-714q0 -303 -66 -445.5t-196 -142.5q-86 0 -128.5 43t-42.5 86q0 29 20 53t50 24q55 0 78 -48q5 -9 8 -29.5t10.5 -31.5t29.5 -11q21 0 35.5 33.5t20 101t7 126 t1.5 150.5v34v33v738h-442v-714q0 -303 -66 -445.5t-196 -142.5q-86 0 -128 43t-42 86zM386 994h442l1 92q0 129 23 221l-8 -4q-39 0 -63.5 21.5t-34 49t-29 61t-45.5 50.5q-43 27 -79 27q-17 0 -37 -8.5t-47.5 -29t-54 -66.5t-43.5 -111q-25 -88 -25 -277v-26z" />
<glyph unicode="&#xfb04;" horiz-adv-x="1815" d="M-46 -269q0 29 19.5 53t50.5 24q54 0 78 -48q4 -9 7 -29.5t11 -31.5t29 -11q22 0 36 33.5t19.5 101t7.5 126t2 150.5v34v33v738h-160q-12 0 -12 14v31q0 17 13 31t40 14h119q0 243 59 363q45 91 128 154.5t196 63.5q123 0 199.5 -38.5t106.5 -83.5q34 62 108.5 112 t164.5 50q85 0 158 -29.5t94 -54.5q46 15 136 84h51v-1449q0 -52 22.5 -77t76.5 -25h44q19 0 19 -19v-43l-4 -4q-158 4 -249 4l-239 -4l-5 4v43q0 19 18 19h44q56 0 78 25t22 77v1206q-23 -16 -51 -16q-72 0 -95 66q-43 114 -128 114q-48 0 -90.5 -49.5t-59.5 -141.5 t-17 -230v-121h256q18 0 18 -13v-46q0 -15 -17 -23t-38 -8h-219v-714q0 -303 -66 -445.5t-196 -142.5q-86 0 -128.5 43t-42.5 86q0 29 20 53t50 24q55 0 78 -48q5 -9 8 -29.5t10.5 -31.5t29.5 -11q21 0 35.5 33.5t20 101t7 126t1.5 150.5v34v33v738h-442v-714 q0 -303 -66 -445.5t-196 -142.5q-86 0 -128 43t-42 86zM386 994h442l1 91q0 121 20 217h-5q-67 0 -95 65q-22 58 -56.5 93.5t-96.5 35.5q-58 0 -108 -50t-77 -150q-25 -88 -25 -282v-20z" />
</font>
</defs>
</svg>
